<?xml version="1.0" encoding="utf-8"?>
<!-- Generator: Adobe Illustrator 21.1.0, SVG Export Plug-In . SVG Version: 6.00 Build 0)  -->
<svg version="1.1" id="Layer_1" xmlns="http://www.w3.org/2000/svg" xmlns:xlink="http://www.w3.org/1999/xlink" x="0px" y="0px"
	 viewBox="0 0 698.1 122.6" style="enable-background:new 0 0 698.1 122.6;" xml:space="preserve">
<style type="text/css">
	.st0{fill:#A081C7;}
	.st1{fill:#FFFFFF;}
	.st2{fill:none;stroke:#D0CAD8;stroke-width:0.25;stroke-linecap:round;stroke-miterlimit:10;}
	.st3{fill:none;stroke:#774BAF;stroke-width:0.25;stroke-linecap:round;stroke-miterlimit:10;}
	.st4{fill:none;stroke:#774BAF;stroke-width:0.5;stroke-linecap:round;stroke-miterlimit:10;}
	.st5{fill:none;stroke:#774BAF;stroke-width:0.5;stroke-linecap:round;stroke-miterlimit:10;stroke-dasharray:1.97,1.97;}
	.st6{fill:none;stroke:#C9B7DF;stroke-width:0.75;stroke-linecap:round;stroke-miterlimit:10;}
	.st7{fill:#FFCC33;}
	.st8{fill:none;stroke:#FFCC33;stroke-width:0.75;stroke-linecap:round;stroke-miterlimit:10;}
	.st9{fill:none;stroke:#774BAF;stroke-width:0.75;stroke-miterlimit:10;}
	.st10{fill:#D6C9E7;}
	.st11{fill:none;stroke:#774BAF;stroke-width:0.75;stroke-linecap:round;stroke-miterlimit:10;}
	.st12{fill:none;stroke:#A081C7;stroke-linecap:round;stroke-miterlimit:10;}
	.st13{fill:#E2D8EE;}
	.st14{fill:#774BAF;}
	.st15{fill:#AD93CF;}
	.st16{fill:#EBE4F3;}
	.st17{fill:#926FBF;}
	.st18{fill:#B49CD3;}
	.st19{fill:#E4DBEF;}
	.st20{fill:none;stroke:#926FBF;stroke-width:0.25;stroke-linecap:round;stroke-miterlimit:10;}
	.st21{fill:none;stroke:#E4DBEF;stroke-width:0.75;stroke-linecap:round;stroke-miterlimit:10;}
	.st22{fill:none;stroke:#E4DBEF;stroke-width:0.75;stroke-linecap:round;stroke-miterlimit:10;stroke-dasharray:2.1,2.1;}
	.st23{fill:none;stroke:#E4DBEF;stroke-width:0.75;stroke-linecap:round;stroke-miterlimit:10;stroke-dasharray:1.96,1.96;}
	.st24{fill:none;stroke:#E4DBEF;stroke-width:0.75;stroke-linecap:round;stroke-miterlimit:10;stroke-dasharray:1.6,1.6;}
</style>
<title>logo</title>
<g id="icons">
	<path class="st0" d="M160.9,51.3c-0.1,0.7-0.8,1.2-1.5,1.1c-0.6-0.1-1-0.5-1.1-1.1H128V95h30.4c0.1-0.7,0.8-1.2,1.5-1.1
		c0.6,0.1,1,0.5,1.1,1.1h30.4V51.3H160.9z"/>
	<path class="st1" d="M160,47.8c0,0.6-0.5,1.1-1.1,1.1c-0.6,0-1.1-0.5-1.1-1.1h-26.6v43.7h26.6c0-0.6,0.5-1.1,1.1-1.1
		c0.6,0,1.1,0.5,1.1,1.1h26.5V47.8H160z"/>
	<line class="st2" x1="158.9" y1="50.3" x2="158.9" y2="88.7"/>
	<line class="st3" x1="163.4" y1="51.7" x2="181.4" y2="51.7"/>
	<line class="st3" x1="163.4" y1="54.4" x2="181.4" y2="54.4"/>
	<line class="st3" x1="135.3" y1="51.7" x2="153.3" y2="51.7"/>
	<line class="st3" x1="135.3" y1="54.4" x2="153.3" y2="54.4"/>
	<line class="st3" x1="135.3" y1="59.3" x2="153.3" y2="59.3"/>
	<line class="st3" x1="135.3" y1="62.1" x2="153.3" y2="62.1"/>
	<line class="st3" x1="135.3" y1="64.8" x2="153.3" y2="64.8"/>
	<line class="st3" x1="135.3" y1="67.5" x2="153.3" y2="67.5"/>
	<line class="st3" x1="173.1" y1="58.4" x2="181.4" y2="58.4"/>
	<line class="st4" x1="0.2" y1="55.6" x2="1.2" y2="55.6"/>
	<line class="st5" x1="3.2" y1="55.6" x2="81.2" y2="55.6"/>
	<line class="st4" x1="82.2" y1="55.6" x2="83.2" y2="55.6"/>
	<polyline class="st6" points="68.9,68 68.9,83.4 146.2,83.4 	"/>
	
		<ellipse transform="matrix(0.9959 -9.028494e-02 9.028494e-02 0.9959 -0.1276 5.679)" class="st7" cx="62.7" cy="4.3" rx="4.2" ry="4.2"/>
	<path class="st1" d="M87.5,11.6L87.5,11.6c0.8,0,1.4,0.6,1.4,1.4v23.4c0,0.8-0.6,1.4-1.4,1.4l0,0c-0.8,0-1.4-0.6-1.4-1.4V13.1
		C86.1,12.3,86.7,11.6,87.5,11.6z"/>
	<line class="st8" x1="41.6" y1="28.4" x2="41.6" y2="35.3"/>
	<line class="st8" x1="41.6" y1="40.5" x2="41.6" y2="47.3"/>
	<line class="st8" x1="45" y1="38" x2="51.9" y2="38"/>
	<line class="st8" x1="31.6" y1="38" x2="38.4" y2="38"/>
	<path class="st1" d="M395.7,46.9h21.7c0.9,0,1.6,0.7,1.6,1.6v14.4c0,0.9-0.7,1.6-1.6,1.6h-2.6l-3.9,4.5c-0.1,0.2-0.4,0.2-0.6,0
		c-0.1-0.1-0.1-0.1-0.1-0.2l-1.1-4.3h-13.4c-0.9,0-1.6-0.7-1.6-1.6V48.5C394.1,47.6,394.8,46.9,395.7,46.9z"/>
	<line class="st9" x1="398.3" y1="53" x2="414.8" y2="53"/>
	<line class="st9" x1="398.3" y1="57.4" x2="414.8" y2="57.4"/>
	<path class="st10" d="M490.4,34.2h98.3c1.9,0,3.4,1.5,3.4,3.4v64.9c0,1.9-1.5,3.4-3.4,3.4h-98.3c-1.9,0-3.4-1.5-3.4-3.4V37.6
		C487.1,35.7,488.6,34.2,490.4,34.2z"/>
	<rect x="505.5" y="61.6" class="st1" width="8.8" height="8.8"/>
	<rect x="525.7" y="61.6" class="st7" width="8.8" height="8.8"/>
	<rect x="546" y="61.6" class="st1" width="8.8" height="8.8"/>
	<rect x="566.3" y="61.6" class="st1" width="8.8" height="8.8"/>
	<rect x="505.5" y="78.5" class="st1" width="8.8" height="8.8"/>
	<rect x="525.7" y="78.5" class="st1" width="8.8" height="8.8"/>
	<rect x="546" y="78.5" class="st1" width="8.8" height="8.8"/>
	<rect x="566.3" y="78.5" class="st7" width="8.8" height="8.8"/>
	<path class="st0" d="M487.8,34.2h103.5c0.4,0,0.8,0.3,0.8,0.8v16.5c0,0.4-0.3,0.8-0.8,0.8H487.8c-0.4,0-0.8-0.3-0.8-0.8V35
		C487.1,34.6,487.4,34.2,487.8,34.2z"/>
	
		<ellipse transform="matrix(8.263423e-02 -0.9966 0.9966 8.263423e-02 496.9962 620.3157)" class="st0" cx="585.4" cy="40.2" rx="17.6" ry="17.6"/>
	<ellipse transform="matrix(0.408 -0.913 0.913 0.408 309.8682 558.378)" class="st1" cx="585.5" cy="40.2" rx="14.2" ry="14.2"/>
	<polyline class="st11" points="591.4,36.1 583,44.7 579.9,40.6 	"/>
	<line class="st12" x1="603.1" y1="61.6" x2="643.7" y2="61.6"/>
	<path class="st13" d="M531.4,118.5L531.4,118.5c0,1-0.8,1.9-1.9,1.9h-27.2c-1,0-1.9-0.8-1.9-1.9l0,0c0-1,0.8-1.9,1.9-1.9h27.2
		C530.6,116.6,531.4,117.5,531.4,118.5z"/>
	<path class="st14" d="M153.6,116.8L153.6,116.8c0,1.6-1.3,2.8-2.8,2.8H122c-1.5,0-2.8-1.3-2.8-2.8v0c0-1.5,1.3-2.8,2.8-2.8h28.8
		C152.3,114,153.6,115.3,153.6,116.8z"/>
	<path class="st15" d="M364.8,87.6v12.4c0,0.5-0.4,0.9-0.9,0.9h-19.7c-0.5,0-0.9-0.4-0.9-0.9V87.6c0-0.5,0.4-0.9,0.9-0.9h19.7
		C364.4,86.7,364.8,87.1,364.8,87.6z"/>
	<circle class="st16" cx="360.1" cy="98.6" r="0.9"/>
	<polygon class="st1" points="380.6,66.5 378.6,77 382.3,76.8 	"/>
	<polygon class="st17" points="380.6,66.5 380.1,68.9 381,68.9 	"/>
	<polygon class="st18" points="378.7,77 382.3,76.9 382.1,112.2 378.4,112.4 	"/>
	<polygon class="st17" points="378.7,77 379.2,76.9 379,112.3 378.4,112.4 	"/>
	<polygon class="st17" points="380.2,76.9 380.8,76.9 380.5,112.3 379.9,112.3 	"/>
	<polygon class="st17" points="381.7,76.9 382.3,76.9 382,112.2 381.5,112.3 	"/>
	<polygon class="st1" points="378.4,112.1 382.1,112.1 382.1,117.4 378.3,117.4 	"/>
	<path class="st15" d="M382.1,117.4c0,1-0.8,1.9-1.9,1.9s-1.9-0.8-1.9-1.9l0,0H382.1z"/>
	<path class="st1" d="M389.5,99.2c0,0,0-0.1,0-0.1s0-0.1,0-0.1c0-0.9-0.7-1.7-1.6-1.9h-0.1h0.8c1,0.1,2-0.7,2-1.8c0.1-1-0.7-2-1.8-2
		c-0.1,0-0.2,0-0.3,0h2c1.1,0,2-0.9,2-2s-0.9-2-2-2h-2.2c1.1,0,2-0.9,2-2s-0.9-2-2-2h-5c1.2-0.1,2.1-1.1,2.1-2.4
		c-0.1-1.1-1-2-2.1-2.1h-7.2c-0.7,0-1.4,0.4-1.9,1l0,0l-5.6,6.3h-4.2v11.2h5.4l2,0.9c0.2,0.2,0.5,0.4,0.8,0.5c0.4,0.5,1,0.8,1.7,0.8
		h12.6c1.3,0.1,2.3-0.9,2.4-2.2C389.5,99.3,389.5,99.3,389.5,99.2z"/>
	<path class="st17" d="M365.9,85.9v15.8c0,0.2-0.2,0.4-0.4,0.4h-2.1c-0.2,0-0.4-0.2-0.4-0.4V85.9c0-0.2,0.2-0.4,0.4-0.4h2.1
		C365.7,85.5,365.9,85.7,365.9,85.9z"/>
	<polygon class="st19" points="289.7,67.3 289.7,92.9 263.9,92.9 263.9,63.2 285.6,63.2 	"/>
	<polygon class="st15" points="285.6,63.2 285.6,67.3 289.7,67.3 	"/>
	<line class="st20" x1="268.6" y1="67.3" x2="278.7" y2="67.3"/>
	<line class="st20" x1="268.6" y1="68.9" x2="278.7" y2="68.9"/>
	<line class="st20" x1="268.6" y1="70.5" x2="278.7" y2="70.5"/>
	<line class="st20" x1="268.6" y1="75.6" x2="283.4" y2="75.6"/>
	<line class="st20" x1="268.6" y1="77.3" x2="283.4" y2="77.3"/>
	<path class="st1" d="M229.6,105.1L229.6,105.1c-0.1-4.8-4.1-8.5-8.9-8.4c-4.3,0.1-7.9,3.4-8.3,7.7h-0.1c-2.7,0-4.9,2.2-4.9,4.9
		c0,2.7,2.2,4.9,4.9,4.9c0,0,0,0,0,0h17.3c2.5,0,4.6-2.1,4.6-4.6S232.1,105.1,229.6,105.1L229.6,105.1z"/>
	<line class="st21" x1="224.6" y1="106.7" x2="225.6" y2="106.7"/>
	<line class="st22" x1="227.6" y1="106.7" x2="251.8" y2="106.7"/>
	<line class="st21" x1="252.8" y1="106.7" x2="253.8" y2="106.7"/>
	<line class="st8" x1="690" y1="11.9" x2="690" y2="17.1"/>
	<line class="st8" x1="690" y1="21.1" x2="690" y2="26.2"/>
	<line class="st8" x1="692.6" y1="19.1" x2="697.7" y2="19.1"/>
	<line class="st8" x1="682.4" y1="19.1" x2="687.5" y2="19.1"/>
	
		<ellipse transform="matrix(0.9959 -9.028494e-02 9.028494e-02 0.9959 -1.1329 58.9572)" class="st7" cx="651.1" cy="42" rx="3.7" ry="3.7"/>
	<path class="st7" d="M312.2,63.5L312.2,63.5c-1.3,0-2.3-1-2.3-2.3V44.9c0-1.3,1-2.3,2.3-2.3h0c1.3,0,2.3,1,2.3,2.3v16.4
		C314.5,62.5,313.5,63.5,312.2,63.5z"/>
	
		<ellipse transform="matrix(0.9959 -9.028494e-02 9.028494e-02 0.9959 -9.3012 31.0458)" class="st7" cx="338.5" cy="118.3" rx="4.2" ry="4.2"/>
	<line class="st21" x1="498.7" y1="89.5" x2="497.7" y2="89.5"/>
	<line class="st23" x1="495.7" y1="89.5" x2="434" y2="89.5"/>
	<polyline class="st21" points="433,89.5 432,89.5 432,88.5 	"/>
	<line class="st24" x1="432" y1="86.9" x2="432" y2="81.3"/>
	<line class="st21" x1="432" y1="80.5" x2="432" y2="79.5"/>
</g>
</svg>
