<?xml version="1.0" encoding="utf-8"?>
<!-- Generator: Adobe Illustrator 19.0.0, SVG Export Plug-In . SVG Version: 6.00 Build 0)  -->
<svg version="1.1" id="logo" xmlns="http://www.w3.org/2000/svg" xmlns:xlink="http://www.w3.org/1999/xlink" x="0px" y="0px"
	 viewBox="-212 375.7 430.7 49.3" style="enable-background:new -212 375.7 430.7 49.3;" xml:space="preserve">
<style type="text/css">
	.st0{fill:#774BAF;}
	.st1{fill:#F7E6BA;}
	.st2{fill:#68604D;}
	.st3{fill:#FFCC33;}
	.st4{fill:#F4B638;}
	.st5{fill:#BDE1F9;}
	.st6{fill:#FF6663;}
	.st7{fill:none;}
	.st8{font-family:'FranklinGothic-Book';}
	.st9{font-size:26.6405px;}
</style>
<title>logo</title>
<path class="st0" d="M-206.2,418.7v-14.9h-5.4c-0.2,0-0.4-0.2-0.4-0.4l0,0v-1.3c0-0.2,0.2-0.4,0.4-0.4l0,0h13.3
	c0.2,0,0.4,0.2,0.4,0.4l0,0v1.3c0,0.2-0.2,0.4-0.4,0.4l0,0h-5.5v14.9c0,0.2-0.2,0.4-0.4,0.4l0,0h-1.6
	C-206,419-206.2,418.9-206.2,418.7L-206.2,418.7z"/>
<path class="st0" d="M-193.1,402.1v7.1h8.2v-7.1c0-0.2,0.2-0.4,0.4-0.4l0,0h1.7c0.2,0,0.4,0.2,0.4,0.4l0,0v16.6
	c0,0.2-0.2,0.4-0.4,0.4l0,0h-1.7c-0.2,0-0.4-0.2-0.4-0.4l0,0v-7.5h-8.2v7.5c0,0.2-0.2,0.4-0.4,0.4l0,0h-1.7c-0.2,0-0.4-0.2-0.4-0.4
	l0,0v-16.6c0-0.2,0.2-0.4,0.4-0.4l0,0h1.7C-193.3,401.7-193.1,401.9-193.1,402.1z"/>
<path class="st0" d="M-177.8,401.7h10.1c0.2,0,0.4,0.2,0.4,0.4l0,0v1.3c0,0.2-0.2,0.4-0.4,0.4l0,0h-8.1v5.4h7.7
	c0.2,0,0.4,0.2,0.4,0.4l0,0v1.3c0,0.2-0.2,0.4-0.4,0.4l0,0h-7.7v5.8h8.3c0.2,0,0.4,0.2,0.4,0.4l0,0v1.4c0,0.2-0.2,0.4-0.4,0.4l0,0
	h-10.3c-0.2,0-0.4-0.2-0.4-0.4l0,0v-16.8C-178.2,401.9-178,401.7-177.8,401.7L-177.8,401.7z"/>
<path class="st0" d="M-138.8,419h-5.6c-0.3,0-0.6-0.2-0.7-0.5l-15.1-42.3c-0.1-0.2,0-0.4,0.2-0.5h0.1h5.6c0.3,0,0.6,0.2,0.7,0.5
	l12.1,36.6l12.9-36.6c0.1-0.3,0.4-0.5,0.7-0.5h5c0.2,0,0.4,0.2,0.4,0.4v0.1l-15.7,42.4C-138.3,418.8-138.6,419-138.8,419z"/>
<path class="st0" d="M-99.2,375.7h7.6c0.3,0,0.5,0.1,0.6,0.3l21.1,35.5v-35.1c0-0.4,0.3-0.7,0.7-0.7l0,0h4.4c0.2,0,0.4,0.2,0.4,0.4
	l0,0v42.6c0,0.2-0.2,0.4-0.4,0.4l0,0h-6.9c-0.3,0-0.5-0.1-0.6-0.3l-21.8-36.6v36.5c0,0.2-0.2,0.4-0.4,0.4l0,0h-4.7
	c-0.2,0-0.4-0.2-0.4-0.4l0,0v-42.6C-99.5,375.9-99.4,375.7-99.2,375.7L-99.2,375.7z"/>
<path class="st0" d="M-54,375.7h26.5c0.2,0,0.4,0.2,0.4,0.4v4.4c0,0.2-0.2,0.4-0.4,0.4h-20.8v13.5h19.8c0.2,0,0.4,0.2,0.4,0.4v4.3
	c0,0.2-0.2,0.4-0.4,0.4h-19.8v14.4H-27c0.2,0,0.4,0.2,0.4,0.4v4.4c0,0.2-0.2,0.4-0.4,0.4h-27c-0.2,0-0.4-0.2-0.4-0.4l0,0v-42.6
	C-54.3,375.9-54.2,375.7-54,375.7L-54,375.7z"/>
<polygon class="st1" points="-112.4,376 -115.2,384.2 -109.9,384.2 "/>
<polygon class="st2" points="-112.4,376 -113.1,377.9 -111.8,377.9 "/>
<polygon class="st3" points="-115.2,384.3 -109.9,384.2 -110.3,412.1 -115.6,412.2 "/>
<polygon class="st4" points="-115.2,384.3 -114.4,384.2 -114.8,412.2 -115.6,412.2 "/>
<polygon class="st4" points="-113,384.2 -112.1,384.2 -112.5,412.1 -113.4,412.1 "/>
<polygon class="st4" points="-110.7,384.2 -109.9,384.2 -110.3,412.1 -111.2,412.1 "/>
<polygon class="st5" points="-115.6,412.1 -110.3,412 -110.4,416.1 -115.7,416.2 "/>
<path class="st6" d="M-110.4,416.1c0,1.5-1.2,2.8-2.7,2.9c-1.5,0-2.6-1.3-2.6-2.7v-0.1L-110.4,416.1z"/>
<rect x="-14.7" y="396.8" class="st7" width="233.4" height="28.2"/>
<text transform="matrix(1 0 0 1 -14.6662 419.0004)"><tspan x="0" y="0" class="st0 st8 st9">tutoring &amp; consult</tspan><tspan x="199.9" y="0" class="st0 st8 st9">-</tspan></text>
</svg>
