<?xml version="1.0" encoding="utf-8"?>
<!-- Generator: Adobe Illustrator 22.0.1, SVG Export Plug-In . SVG Version: 6.00 Build 0)  -->
<svg version="1.1" id="Layer_1" xmlns="http://www.w3.org/2000/svg" xmlns:xlink="http://www.w3.org/1999/xlink" x="0px" y="0px"
	 viewBox="0 0 423.2 47" style="enable-background:new 0 0 423.2 47;" xml:space="preserve">
<style type="text/css">
	.st0{fill:#158C44;}
	.st1{fill:none;stroke:#165AC6;stroke-width:0.25;stroke-miterlimit:10;}
	.st2{fill:#774BAF;}
	.st3{fill:#F7E6BA;}
	.st4{fill:#68604D;}
	.st5{fill:#FFCC33;}
	.st6{fill:#F4B638;}
	.st7{fill:#BDE1F9;}
	.st8{fill:#FF6663;}
</style>
<path class="st2" d="M5.6,41.6V27.2H0.3C0.2,27.2,0,27,0,26.8v-1.3c0-0.2,0.2-0.3,0.3-0.3h12.9c0.2,0,0.3,0.2,0.3,0.3v1.3
	c0,0.2-0.2,0.3-0.3,0.3H7.9v14.5c0,0.2-0.2,0.3-0.3,0.3H6C5.8,42,5.6,41.8,5.6,41.6z"/>
<path class="st2" d="M18.3,25.5v6.9h8v-6.9c0-0.2,0.2-0.3,0.3-0.3h1.6c0.2,0,0.3,0.2,0.3,0.3v16.1c0,0.2-0.2,0.3-0.3,0.3h-1.6
	c-0.2,0-0.3-0.2-0.3-0.3v-7.2h-8v7.2c0,0.2-0.2,0.3-0.3,0.3h-1.6c-0.2,0-0.3-0.2-0.3-0.3V25.5c0-0.2,0.2-0.3,0.3-0.3H18
	C18.2,25.2,18.3,25.4,18.3,25.5z"/>
<path class="st2" d="M33.1,25.2H43c0.2,0,0.3,0.2,0.3,0.3v1.3c0,0.2-0.2,0.3-0.3,0.3h-7.9v5.2h7.5c0.2,0,0.3,0.2,0.3,0.3V34
	c0,0.2-0.2,0.3-0.3,0.3h-7.5v5.6h8.1c0.2,0,0.3,0.2,0.3,0.3v1.3c0,0.2-0.2,0.3-0.3,0.3h-10c-0.2,0-0.3-0.2-0.3-0.3V25.5
	C32.8,25.4,32.9,25.2,33.1,25.2z"/>
<path class="st2" d="M70.9,42h-5.4c-0.3,0-0.6-0.2-0.7-0.5L50.2,0.5C50.2,0.2,50.3,0,50.6,0H56c0.3,0,0.6,0.2,0.7,0.5l11.8,35.4
	L80.8,0.5C80.9,0.2,81.2,0,81.5,0h4.9c0.2,0,0.4,0.2,0.3,0.5L71.6,41.5C71.5,41.8,71.2,42,70.9,42z"/>
<path class="st2" d="M109.4,0h7.3c0.2,0,0.5,0.1,0.6,0.3l20.4,34.4v-34c0-0.4,0.3-0.7,0.7-0.7h4.3c0.2,0,0.3,0.2,0.3,0.3v41.3
	c0,0.2-0.2,0.3-0.3,0.3h-6.7c-0.2,0-0.5-0.1-0.6-0.3L114.3,6.3v35.3c0,0.2-0.2,0.3-0.3,0.3h-4.6c-0.2,0-0.3-0.2-0.3-0.3V0.3
	C109,0.2,109.2,0,109.4,0z"/>
<path class="st2" d="M153.2,0h25.7c0.2,0,0.3,0.2,0.3,0.3v4.2c0,0.2-0.2,0.3-0.3,0.3h-20.2V18h19.2c0.2,0,0.3,0.2,0.3,0.3v4.2
	c0,0.2-0.2,0.3-0.3,0.3h-19.2v14h20.6c0.2,0,0.3,0.2,0.3,0.3v4.4c0,0.2-0.2,0.3-0.3,0.3h-26.1c-0.2,0-0.3-0.2-0.3-0.3V0.3
	C152.8,0.2,153,0,153.2,0z"/>
<g>
	<polygon class="st3" points="96.5,0.3 93.8,8.3 99,8.2 	"/>
	<polygon class="st4" points="96.5,0.3 95.9,2.1 97.1,2.1 	"/>
	<polygon class="st5" points="93.9,8.3 99,8.2 98.6,35.3 93.5,35.3 	"/>
	<polygon class="st6" points="93.9,8.3 94.7,8.3 94.3,35.3 93.5,35.3 	"/>
	<polygon class="st6" points="96,8.2 96.8,8.2 96.4,35.3 95.6,35.3 	"/>
	<polygon class="st6" points="98.2,8.2 99,8.2 98.6,35.3 97.8,35.3 	"/>
	<polygon class="st7" points="93.4,35.3 98.6,35.2 98.5,39.1 93.4,39.2 	"/>
	<path class="st8" d="M98.5,39.2c0,1.5-1.2,2.8-2.6,2.8c-1.4,0-2.6-1.2-2.5-2.7L98.5,39.2z"/>
</g>
<g>
	<path class="st2" d="M194.7,25.5v3.6h3.3v1.7h-3.3v6.8c0,1.6,0.4,2.4,1.7,2.4c0.6,0,1-0.1,1.3-0.2l0.1,1.7c-0.4,0.2-1.1,0.3-2,0.3
		c-1.1,0-1.9-0.3-2.5-1c-0.6-0.7-0.9-1.8-0.9-3.3v-6.8h-1.9v-1.7h1.9v-3L194.7,25.5z"/>
	<path class="st2" d="M211.2,38.2c0,1.3,0,2.4,0.1,3.4h-2l-0.1-2h-0.1c-0.6,1-1.9,2.3-4.1,2.3c-2,0-4.3-1.1-4.3-5.5v-7.3h2.3V36
		c0,2.4,0.7,4,2.8,4c1.5,0,2.6-1.1,3-2.1c0.1-0.3,0.2-0.8,0.2-1.2v-7.7h2.3V38.2z"/>
	<path class="st2" d="M218,25.5v3.6h3.3v1.7H218v6.8c0,1.6,0.4,2.4,1.7,2.4c0.6,0,1-0.1,1.3-0.2l0.1,1.7c-0.4,0.2-1.1,0.3-2,0.3
		c-1.1,0-1.9-0.3-2.5-1c-0.6-0.7-0.9-1.8-0.9-3.3v-6.8h-1.9v-1.7h1.9v-3L218,25.5z"/>
	<path class="st2" d="M235.3,35.2c0,4.6-3.2,6.7-6.2,6.7c-3.4,0-6-2.5-6-6.4c0-4.2,2.7-6.7,6.2-6.7
		C232.9,28.8,235.3,31.4,235.3,35.2z M225.3,35.3c0,2.7,1.6,4.8,3.8,4.8c2.2,0,3.8-2,3.8-4.9c0-2.1-1.1-4.8-3.8-4.8
		C226.5,30.5,225.3,33,225.3,35.3z"/>
	<path class="st2" d="M238.4,33c0-1.5,0-2.7-0.1-3.9h2l0.1,2.5h0.1c0.6-1.7,1.9-2.7,3.5-2.7c0.3,0,0.4,0,0.6,0.1V31
		c-0.2-0.1-0.5-0.1-0.8-0.1c-1.6,0-2.7,1.2-3.1,2.9c-0.1,0.3-0.1,0.7-0.1,1.1v6.7h-2.3V33z"/>
	<path class="st2" d="M249.8,25.5c0,0.8-0.5,1.4-1.5,1.4c-0.8,0-1.4-0.6-1.4-1.4c0-0.8,0.6-1.4,1.4-1.4
		C249.2,24.1,249.8,24.7,249.8,25.5z M247.3,41.6V29.1h2.3v12.5H247.3z"/>
	<path class="st2" d="M253.6,32.4c0-1.3,0-2.4-0.1-3.4h2l0.1,2.1h0.1c0.6-1.2,2.1-2.4,4.1-2.4c1.7,0,4.4,1,4.4,5.3v7.5H262v-7.2
		c0-2-0.8-3.7-2.9-3.7c-1.5,0-2.7,1.1-3.1,2.3c-0.1,0.3-0.2,0.7-0.2,1.1v7.5h-2.3V32.4z"/>
	<path class="st2" d="M279,29.1c-0.1,0.9-0.1,1.9-0.1,3.4v7.3c0,2.9-0.6,4.6-1.8,5.7c-1.2,1.1-3,1.5-4.6,1.5c-1.5,0-3.2-0.4-4.2-1
		l0.6-1.7c0.8,0.5,2.1,1,3.7,1c2.3,0,4-1.2,4-4.4v-1.4h-0.1c-0.7,1.2-2,2.1-4,2.1c-3.1,0-5.3-2.6-5.3-6.1c0-4.2,2.8-6.7,5.6-6.7
		c2.2,0,3.4,1.1,3.9,2.2h0.1l0.1-1.9H279z M276.6,34c0-0.4,0-0.7-0.1-1c-0.4-1.3-1.5-2.4-3.2-2.4c-2.2,0-3.7,1.8-3.7,4.7
		c0,2.5,1.2,4.5,3.7,4.5c1.4,0,2.7-0.9,3.2-2.3c0.1-0.4,0.2-0.8,0.2-1.2V34z"/>
	<path class="st2" d="M299.7,41.6c-0.5-0.5-1-1-1.6-1.7c-1.5,1.4-3.2,2-5.1,2c-3.4,0-5.4-2.3-5.4-4.9c0-2.4,1.4-4,3.4-5.1v-0.1
		c-0.9-1.1-1.4-2.4-1.4-3.7c0-2.1,1.5-4.3,4.4-4.3c2.2,0,3.9,1.4,3.9,3.7c0,1.8-1.1,3.3-3.8,4.7v0.1c1.5,1.7,3.1,3.6,4.2,4.9
		c0.8-1.2,1.3-2.9,1.7-5.1h2.1c-0.5,2.7-1.2,4.9-2.5,6.4c0.9,1,1.8,2,2.9,3.1H299.7z M296.9,38.6c-1-1.1-3-3.3-4.9-5.5
		c-0.9,0.6-2.3,1.7-2.3,3.5c0,2,1.5,3.5,3.6,3.5C294.9,40.2,296.1,39.5,296.9,38.6z M291.6,27.9c0,1.2,0.6,2.2,1.3,3.1
		c1.8-1,2.9-1.9,2.9-3.4c0-1.1-0.6-2.3-2-2.3C292.4,25.4,291.6,26.6,291.6,27.9z"/>
	<path class="st2" d="M319.3,41.1c-0.6,0.3-1.9,0.7-3.6,0.7c-3.8,0-6.2-2.6-6.2-6.4c0-3.9,2.6-6.7,6.7-6.7c1.3,0,2.5,0.3,3.2,0.6
		l-0.5,1.8c-0.5-0.3-1.4-0.6-2.6-0.6c-2.9,0-4.4,2.1-4.4,4.7c0,2.9,1.9,4.7,4.4,4.7c1.3,0,2.1-0.3,2.8-0.6L319.3,41.1z"/>
	<path class="st2" d="M333.4,35.2c0,4.6-3.2,6.7-6.2,6.7c-3.4,0-6-2.5-6-6.4c0-4.2,2.7-6.7,6.2-6.7C331,28.8,333.4,31.4,333.4,35.2z
		 M323.5,35.3c0,2.7,1.6,4.8,3.8,4.8c2.2,0,3.8-2,3.8-4.9c0-2.1-1.1-4.8-3.8-4.8C324.6,30.5,323.5,33,323.5,35.3z"/>
	<path class="st2" d="M336.5,32.4c0-1.3,0-2.4-0.1-3.4h2l0.1,2.1h0.1c0.6-1.2,2.1-2.4,4.1-2.4c1.7,0,4.4,1,4.4,5.3v7.5h-2.3v-7.2
		c0-2-0.8-3.7-2.9-3.7c-1.5,0-2.7,1.1-3.1,2.3c-0.1,0.3-0.2,0.7-0.2,1.1v7.5h-2.3V32.4z"/>
	<path class="st2" d="M350.9,39.3c0.7,0.4,1.9,0.9,3,0.9c1.7,0,2.4-0.8,2.4-1.9c0-1.1-0.6-1.7-2.3-2.3c-2.3-0.8-3.3-2-3.3-3.5
		c0-2,1.6-3.7,4.3-3.7c1.3,0,2.4,0.4,3.1,0.8l-0.6,1.7c-0.5-0.3-1.4-0.7-2.6-0.7c-1.3,0-2.1,0.8-2.1,1.7c0,1,0.8,1.5,2.4,2.1
		c2.2,0.8,3.3,1.9,3.3,3.8c0,2.2-1.7,3.8-4.7,3.8c-1.4,0-2.6-0.3-3.5-0.9L350.9,39.3z"/>
	<path class="st2" d="M372.2,38.2c0,1.3,0,2.4,0.1,3.4h-2l-0.1-2h-0.1c-0.6,1-1.9,2.3-4.1,2.3c-2,0-4.3-1.1-4.3-5.5v-7.3h2.3V36
		c0,2.4,0.7,4,2.8,4c1.5,0,2.6-1.1,3-2.1c0.1-0.3,0.2-0.8,0.2-1.2v-7.7h2.3V38.2z"/>
	<path class="st2" d="M376.2,23.2h2.3v18.4h-2.3V23.2z"/>
	<path class="st2" d="M385.3,25.5v3.6h3.3v1.7h-3.3v6.8c0,1.6,0.4,2.4,1.7,2.4c0.6,0,1-0.1,1.3-0.2l0.1,1.7c-0.4,0.2-1.1,0.3-2,0.3
		c-1.1,0-1.9-0.3-2.5-1c-0.6-0.7-0.9-1.8-0.9-3.3v-6.8h-1.9v-1.7h1.9v-3L385.3,25.5z"/>
	<path class="st2" d="M394,25.5c0,0.8-0.5,1.4-1.5,1.4c-0.8,0-1.4-0.6-1.4-1.4c0-0.8,0.6-1.4,1.4-1.4C393.4,24.1,394,24.7,394,25.5z
		 M391.4,41.6V29.1h2.3v12.5H391.4z"/>
	<path class="st2" d="M397.7,32.4c0-1.3,0-2.4-0.1-3.4h2l0.1,2.1h0.1c0.6-1.2,2.1-2.4,4.1-2.4c1.7,0,4.4,1,4.4,5.3v7.5h-2.3v-7.2
		c0-2-0.8-3.7-2.9-3.7c-1.5,0-2.7,1.1-3.1,2.3c-0.1,0.3-0.2,0.7-0.2,1.1v7.5h-2.3V32.4z"/>
	<path class="st2" d="M423.2,29.1c-0.1,0.9-0.1,1.9-0.1,3.4v7.3c0,2.9-0.6,4.6-1.8,5.7c-1.2,1.1-3,1.5-4.6,1.5c-1.5,0-3.2-0.4-4.2-1
		l0.6-1.7c0.8,0.5,2.1,1,3.7,1c2.3,0,4-1.2,4-4.4v-1.4h-0.1c-0.7,1.2-2,2.1-4,2.1c-3.1,0-5.3-2.6-5.3-6.1c0-4.2,2.8-6.7,5.6-6.7
		c2.2,0,3.4,1.1,3.9,2.2h0.1l0.1-1.9H423.2z M420.8,34c0-0.4,0-0.7-0.1-1c-0.4-1.3-1.5-2.4-3.2-2.4c-2.2,0-3.7,1.8-3.7,4.7
		c0,2.5,1.2,4.5,3.7,4.5c1.4,0,2.7-0.9,3.2-2.3c0.1-0.4,0.2-0.8,0.2-1.2V34z"/>
</g>
</svg>
