<?xml version="1.0" encoding="utf-8"?>
<!-- Generator: Adobe Illustrator 21.1.0, SVG Export Plug-In . SVG Version: 6.00 Build 0)  -->
<svg version="1.1" id="Layer_1" xmlns="http://www.w3.org/2000/svg" xmlns:xlink="http://www.w3.org/1999/xlink" x="0px" y="0px"
	 viewBox="0 0 839.2 155.4" style="enable-background:new 0 0 839.2 155.4;" xml:space="preserve">
<style type="text/css">
	.st0{fill:#D3E5FC;}
	.st1{fill:#5A9EF2;}
	.st2{fill:#BDD8FA;}
	.st3{fill:none;stroke:#237EEE;stroke-width:0.5;stroke-linecap:round;stroke-miterlimit:10;}
	.st4{fill:#4F98F1;}
	.st5{fill:none;stroke:#A7CBF8;stroke-width:0.75;stroke-linecap:round;stroke-miterlimit:10;}
	.st6{fill:#FFCC33;}
	.st7{fill:none;stroke:#D3E5FC;stroke-linecap:round;stroke-miterlimit:10;}
	.st8{fill:none;stroke:#D3E5FC;stroke-linecap:round;stroke-miterlimit:10;stroke-dasharray:2.02,2.02;}
	.st9{fill:none;stroke:#D7E8D7;stroke-width:0.75;stroke-linecap:round;stroke-miterlimit:10;}
	.st10{fill:#E9F2FD;}
	.st11{fill:none;stroke:#FFCC33;stroke-width:2;stroke-linecap:round;stroke-miterlimit:10;}
	.st12{fill:#91BEF6;}
	.st13{fill:#A7CBF8;}
	.st14{fill:none;stroke:#FFFFFF;stroke-width:0.75;stroke-linecap:round;stroke-miterlimit:10;}
	.st15{fill:#FFFFFF;}
	.st16{fill:#7BB2F5;}
	.st17{fill:none;stroke:#FFFFFF;stroke-miterlimit:10;}
	.st18{fill:none;stroke:#FFFFFF;stroke-width:0.75;stroke-linecap:round;stroke-miterlimit:10;stroke-dasharray:1.97,1.97;}
	.st19{fill:none;stroke:#237EEE;stroke-width:0.75;stroke-linecap:round;stroke-miterlimit:10;}
	.st20{fill:none;stroke:#7BB2F5;stroke-width:0.5;stroke-linecap:round;stroke-linejoin:round;}
	.st21{fill:#C8DFFB;}
	.st22{fill:none;stroke:#FFFFFF;stroke-width:1.5;stroke-linecap:round;stroke-linejoin:round;}
	.st23{fill:none;stroke:#D3E5FC;stroke-linecap:round;stroke-linejoin:round;}
	.st24{clip-path:url(#SVGID_2_);}
	.st25{clip-path:url(#SVGID_4_);}
	.st26{clip-path:url(#SVGID_6_);}
</style>
<title>logo</title>
<g id="icons">
	<path class="st0" d="M394,73.8c0,5-4.3,10.9-9.5,10.9s-9.5-5.8-9.5-10.9c0.3-5.3,4.8-9.3,10.1-9C389.8,65.1,393.7,69,394,73.8
		L394,73.8z"/>
	<path class="st1" d="M380.9,83.7h7.1c0.1,0,0.2,0.1,0.2,0.2v1.6l0,0h-7.5l0,0v-1.6C380.7,83.7,380.8,83.6,380.9,83.7
		C380.9,83.6,380.9,83.6,380.9,83.7z"/>
	<rect x="380.7" y="85.5" class="st2" width="7.5" height="1.8"/>
	<path class="st2" d="M386.2,90.8h-3.5c-0.2,0-0.3-0.1-0.4-0.2l-1.6-1.6h7.5l-1.6,1.6C386.5,90.7,386.4,90.8,386.2,90.8z"/>
	<rect x="380.7" y="87.3" class="st1" width="7.5" height="1.7"/>
	<path class="st3" d="M381,74.7c0.6-0.7,1.7-0.7,2.3-0.1c0,0,0.1,0.1,0.1,0.1c0.6,0.6,1.5,0.7,2.2,0.1c0.1,0,0.1-0.1,0.1-0.1
		c0.6-0.5,1.5-0.5,2.1,0"/>
	<path class="st4" d="M386,75h-3.2c-0.2,0-0.4,0.2-0.4,0.4c0,0,0,0.1,0,0.1l1.4,4.3v3.8h1.2v-3.8l1.4-4.3c0.1-0.2,0-0.5-0.3-0.5
		C386.1,75,386.1,75,386,75z"/>
	<line class="st5" x1="371.7" y1="60.2" x2="375.8" y2="64.7"/>
	<line class="st5" x1="393" y1="64.2" x2="397.1" y2="59.7"/>
	<line class="st5" x1="384.1" y1="55.5" x2="384.1" y2="61.6"/>
	<path class="st6" d="M437.5,101.2v0.6c0,1.2-1,2.2-2.2,2.2h-27.4c-1.2,0-2.2-1-2.2-2.2v-0.6c0-1.2,1-2.2,2.2-2.2h27.4
		C436.5,98.9,437.5,99.9,437.5,101.2z"/>
	<line class="st7" x1="754.4" y1="95.1" x2="755.4" y2="95.1"/>
	<line class="st8" x1="757.4" y1="95.1" x2="800.9" y2="95.1"/>
	<line class="st7" x1="801.9" y1="95.1" x2="802.9" y2="95.1"/>
	<polyline class="st9" points="386.1,121.7 386.1,141.4 505.3,141.4 	"/>
	
		<ellipse transform="matrix(0.9959 -9.028494e-02 9.028494e-02 0.9959 -1.7107 0.5696)" class="st6" cx="5.4" cy="19.2" rx="5.4" ry="5.4"/>
	<path class="st10" d="M69.7,11.9L69.7,11.9c1.2,0,2.3,1,2.3,2.3v15.7c0,1.2-1,2.3-2.3,2.3h0c-1.2,0-2.3-1-2.3-2.3V14.2
		C67.4,12.9,68.4,11.9,69.7,11.9z"/>
	<line class="st11" x1="23.8" y1="40.7" x2="23.8" y2="51.4"/>
	<line class="st11" x1="23.8" y1="59.6" x2="23.8" y2="70.3"/>
	<line class="st11" x1="29.2" y1="55.6" x2="39.9" y2="55.6"/>
	<line class="st11" x1="8.1" y1="55.6" x2="18.8" y2="55.6"/>
	<line class="st11" x1="810.4" y1="50.8" x2="810.4" y2="59.4"/>
	<line class="st11" x1="810.4" y1="65.9" x2="810.4" y2="74.5"/>
	<line class="st11" x1="814.7" y1="62.7" x2="823.3" y2="62.7"/>
	<line class="st11" x1="797.8" y1="62.7" x2="806.4" y2="62.7"/>
	<circle class="st12" cx="705.9" cy="19.1" r="19.1"/>
	<circle class="st13" cx="705.9" cy="19.1" r="17.2"/>
	<circle class="st13" cx="604.7" cy="123.5" r="31.9"/>
	<circle class="st0" cx="604.7" cy="123.5" r="28.7"/>
	<circle class="st1" cx="736.5" cy="122.2" r="11.5"/>
	<circle class="st13" cx="736.5" cy="122.2" r="10.3"/>
	<circle class="st13" cx="736.5" cy="122.2" r="10.3"/>
	<line class="st5" x1="630.2" y1="94.8" x2="686.8" y2="38.2"/>
	<line class="st5" x1="645.5" y1="123.5" x2="713.9" y2="123.5"/>
	<line class="st14" x1="240.9" y1="54.6" x2="309.4" y2="54.6"/>
	<rect x="99.2" y="44.2" class="st15" width="126.9" height="73.5"/>
	<rect x="99.2" y="38.1" class="st16" width="126.9" height="8"/>
	<line class="st17" x1="164" y1="118.5" x2="164" y2="131.3"/>
	<rect x="99.2" y="115.3" class="st16" width="126.9" height="6.3"/>
	<circle class="st17" cx="164" cy="135.4" r="3.7"/>
	<line class="st14" x1="11.3" y1="96.2" x2="12.3" y2="96.2"/>
	<line class="st18" x1="14.3" y1="96.2" x2="80.4" y2="96.2"/>
	<line class="st14" x1="81.4" y1="96.2" x2="82.4" y2="96.2"/>
	<line class="st19" x1="124.4" y1="69.8" x2="160.3" y2="69.8"/>
	<line class="st19" x1="124.4" y1="73.9" x2="160.3" y2="73.9"/>
	<line class="st19" x1="124.4" y1="78.1" x2="160.3" y2="78.1"/>
	<line class="st19" x1="118.8" y1="62.9" x2="132.9" y2="62.9"/>
	<path class="st4" d="M192.5,89.6V79.5c-5.5,0-9.9,4.5-9.9,9.9s4.5,9.9,9.9,9.9s9.9-4.5,9.9-9.9L192.5,89.6z"/>
	<path class="st13" d="M203.7,88.1c0,0-0.3-9.6-9.9-9.9v10.1L203.7,88.1z"/>
	<polyline class="st20" points="270.4,128.6 270.4,116 286,99.2 	"/>
	<circle class="st13" cx="286" cy="98.7" r="4.4"/>
	<circle class="st21" cx="307.5" cy="89.1" r="15.1"/>
	<path class="st21" d="M277.2,132.3v-9.8c0-7.7,8.8-15.2,16.4-15.2h27.6c7.7,0,16.4,7.5,16.4,15.2v9.8H277.2z"/>
	<rect x="261" y="131.5" class="st16" width="92.9" height="9.2"/>
	<rect x="266" y="126.3" class="st13" width="20" height="5.2"/>
	<rect x="326.5" y="129.1" class="st1" width="23.3" height="2.4"/>
	<line class="st22" x1="519.2" y1="35.8" x2="519.2" y2="87.2"/>
	<path class="st22" d="M509.7,37.5c0,3,2.4,5.4,5.4,5.4h6.6c3,0,5.4,2.4,5.4,5.4c0,3-2.4,5.4-5.4,5.4c0,0,0,0,0,0H515
		c-3,0-5.4,2.4-5.4,5.4c0,3,2.4,5.4,5.4,5.4h6.6c3,0,5.4,2.4,5.4,5.4c0,3-2.4,5.4-5.4,5.4c0,0,0,0,0,0H515c-3,0-5.4,2.4-5.4,5.4
		c0,3,2.4,5.4,5.4,5.4c0,0,0,0,0,0"/>
	<path class="st23" d="M526.9,46.5c0,0,2.7-5.7,8.5-6.7"/>
	<path class="st15" d="M532.3,40.9c0,0-1,4.8,4,4.1s5.4-8.2,5.4-8.2s-8.1-2.6-10.4,0.6c-0.8,0.8-0.8,2.1,0,3
		C531.6,40.6,532,40.8,532.3,40.9z"/>
	<path class="st23" d="M505.8,52c0,0,3.4,1.1,4.4,4.2"/>
	<path class="st15" d="M507.6,53.1c0,0,4.5-2.2,0.7-5.7s-9.8,0.9-9.8,0.9s3,8,7,7.8c1.2,0.1,2.2-0.7,2.3-1.9
		C507.8,53.8,507.8,53.5,507.6,53.1z"/>
	<path class="st23" d="M533.1,65.5c0,0-4.8,1.3-6.1,5.2"/>
	<path class="st15" d="M530.7,66.7c0,0-3.5-1.8-0.6-4.6s7.8,0.7,7.8,0.7s-2.4,6.3-5.6,6.2c-0.9,0.1-1.7-0.6-1.8-1.5
		C530.5,67.3,530.6,67,530.7,66.7z"/>
	<path class="st2" d="M546,89.7c-0.8-1.8-2.9-2.6-4.7-2L531.1,91c-0.1,0-0.3,0-0.4,0H523c2.1-0.2,3.7-2,3.7-4.2l0,0
		c0-2.3-1.9-4.2-4.2-4.2L507,82.8l-5-1.1c-0.3-0.1-0.5-0.1-0.8,0c-0.2,0-0.4,0-0.6,0.1l-15,4c-0.8,0.2-1.3,1.1-1.1,1.9l3.5,13.4
		c0.2,0.8,1.1,1.3,1.9,1.1l11.4-3l18.4,2.9c0.2,0,0.3,0.1,0.5,0.1l0.3,0l0,0c0.9,0,1.7-0.2,2.5-0.6l20.7-6.7c2-0.6,3.1-2.7,2.4-4.7
		C546.2,90,546.1,89.9,546,89.7z"/>
	<path class="st1" d="M482.2,83.4l5.2-1.6c0.2-0.1,0.5,0.1,0.6,0.3l7.4,23.9c0.1,0.2-0.1,0.5-0.3,0.6l-5.2,1.6
		c-0.2,0.1-0.5-0.1-0.6-0.3L481.9,84C481.8,83.8,481.9,83.5,482.2,83.4z"/>
	<g>
		<defs>
			<circle id="SVGID_1_" cx="604.6" cy="124.1" r="28.7"/>
		</defs>
		<clipPath id="SVGID_2_">
			<use xlink:href="#SVGID_1_"  style="overflow:visible;"/>
		</clipPath>
		<g class="st24">
			<circle class="st4" cx="604.6" cy="117.6" r="12.3"/>
			<path class="st4" d="M580.1,152.6v-8c0-6.2,7.1-12.3,13.3-12.3h22.4c6.2,0,13.3,6.1,13.3,12.3v8H580.1z"/>
		</g>
	</g>
	<g>
		<defs>
			<circle id="SVGID_3_" cx="705.8" cy="19.2" r="17.3"/>
		</defs>
		<clipPath id="SVGID_4_">
			<use xlink:href="#SVGID_3_"  style="overflow:visible;"/>
		</clipPath>
		<g class="st25">
			<circle class="st4" cx="705.8" cy="15.3" r="7.4"/>
			<path class="st4" d="M691,36.5v-4.8c0-3.8,4.3-7.4,8-7.4h13.5c3.8,0,8,3.7,8,7.4v4.8H691z"/>
		</g>
	</g>
	<g>
		<defs>
			<circle id="SVGID_5_" cx="736.5" cy="122.2" r="10.3"/>
		</defs>
		<clipPath id="SVGID_6_">
			<use xlink:href="#SVGID_5_"  style="overflow:visible;"/>
		</clipPath>
		<g class="st26">
			<circle class="st4" cx="736.5" cy="119.9" r="4.4"/>
			<path class="st4" d="M727.7,132.5v-2.9c0-2.2,2.5-4.4,4.8-4.4h8.1c2.2,0,4.8,2.2,4.8,4.4v2.9H727.7z"/>
		</g>
	</g>
	
		<ellipse transform="matrix(0.9959 -9.028494e-02 9.028494e-02 0.9959 -6.4757 75.7225)" class="st6" cx="833.8" cy="109.4" rx="5.4" ry="5.4"/>
</g>
</svg>
