<?xml version="1.0" encoding="utf-8"?>
<!-- Generator: Adobe Illustrator 21.1.0, SVG Export Plug-In . SVG Version: 6.00 Build 0)  -->
<svg version="1.1" id="Layer_1" xmlns="http://www.w3.org/2000/svg" xmlns:xlink="http://www.w3.org/1999/xlink" x="0px" y="0px"
	 viewBox="0 0 204.3 77.1" style="enable-background:new 0 0 204.3 77.1;" xml:space="preserve">
<style type="text/css">
	.st0{fill:#A082BB;}
	.st1{fill:#F4F1F8;}
	.st2{fill:#7550A1;}
	.st3{fill:none;stroke:#7550A1;stroke-width:0.5;stroke-linecap:round;stroke-miterlimit:10;}
	.st4{fill:#F8F7FB;}
	.st5{fill:none;stroke:#D0CAD8;stroke-width:0.25;stroke-linecap:round;stroke-miterlimit:10;}
	.st6{fill:none;stroke:#A082BB;stroke-width:0.25;stroke-linecap:round;stroke-miterlimit:10;}
	.st7{fill:none;stroke:#7550A1;stroke-width:0.5;stroke-linecap:round;stroke-miterlimit:10;stroke-dasharray:2.08,2.08;}
	.st8{fill:#EBE3F1;}
	.st9{fill:#BCA6D0;}
	.st10{fill:none;stroke:#A082BB;stroke-width:0.5;stroke-linecap:round;stroke-miterlimit:10;}
	.st11{fill:#C9B8DA;}
	.st12{fill:none;stroke:#7550A1;stroke-width:0.5;stroke-linecap:round;stroke-miterlimit:10;stroke-dasharray:2.14,2.14;}
</style>
<path class="st0" d="M45.5,8.8h90.7c0.6,0,1,0.5,1,1v57.7c0,0.6-0.5,1-1,1H45.5c-0.6,0-1-0.5-1-1V9.8C44.5,9.3,44.9,8.8,45.5,8.8z"
	/>
<path class="st1" d="M49,11.1h83.8c0.5,0,0.9,0.4,0.9,0.9v53.3c0,0.5-0.4,0.9-0.9,0.9H49c-0.5,0-0.9-0.4-0.9-0.9V12
	C48,11.5,48.4,11.1,49,11.1z"/>
<path class="st2" d="M150.1,66.2v-0.7c0-0.6-0.4-1-1-1H98.8l-0.8,1.3H81.8l-0.7-1.3H31.4c-0.6,0-1,0.4-1,1l5.4,5.4h109.7L150.1,66.2
	z"/>
<line class="st3" x1="183.4" y1="2.9" x2="204" y2="2.9"/>
<path class="st2" d="M175.5,14.2c0,0.6-0.4,1-1,1s-1-0.4-1-1H150v33.9h23.6c0-0.6,0.4-1,1-1s1,0.4,1,1h23.6V14.2H175.5z"/>
<path class="st4" d="M174.8,11.5c0,0.5-0.4,0.9-0.9,0.9c-0.5,0-0.9-0.4-0.9-0.9c0,0,0,0,0,0h-20.6v33.9h20.6c0-0.5,0.4-0.9,0.9-0.9
	c0.5,0,0.9,0.4,0.9,0.9c0,0,0,0,0,0h20.6V11.5L174.8,11.5z"/>
<line class="st5" x1="174" y1="13.4" x2="174" y2="43.3"/>
<line class="st6" x1="177.5" y1="14.2" x2="191.4" y2="14.2"/>
<line class="st6" x1="177.5" y1="16.3" x2="191.4" y2="16.3"/>
<line class="st6" x1="177.5" y1="18.5" x2="191.4" y2="18.5"/>
<line class="st6" x1="177.5" y1="20.6" x2="191.4" y2="20.6"/>
<line class="st6" x1="155.7" y1="16.3" x2="169.7" y2="16.3"/>
<line class="st6" x1="155.7" y1="18.5" x2="169.7" y2="18.5"/>
<line class="st6" x1="155.7" y1="20.6" x2="169.7" y2="20.6"/>
<line class="st6" x1="155.7" y1="24.4" x2="169.7" y2="24.4"/>
<line class="st6" x1="155.7" y1="26.5" x2="169.7" y2="26.5"/>
<line class="st6" x1="155.7" y1="28.6" x2="169.7" y2="28.6"/>
<line class="st6" x1="155.7" y1="30.7" x2="169.7" y2="30.7"/>
<line class="st6" x1="185" y1="23.6" x2="191.4" y2="23.6"/>
<polyline class="st3" points="121.2,26.8 121.2,39.2 165.1,39.2 "/>
<path class="st3" d="M184.9,55.1c0,0.3,0.1,0.7,0.1,1"/>
<path class="st7" d="M185,58.1c-0.5,10.9-9.8,19.3-20.7,18.7c-3.2-0.2-6.4-1.1-9.2-2.8"/>
<path class="st3" d="M154.3,73.5c-0.3-0.2-0.5-0.4-0.8-0.6"/>
<line class="st3" x1="5.5" y1="6.4" x2="5.5" y2="10"/>
<line class="st3" x1="5.5" y1="12.7" x2="5.5" y2="16.3"/>
<line class="st3" x1="7.3" y1="11.4" x2="10.9" y2="11.4"/>
<line class="st3" x1="0.2" y1="11.4" x2="3.8" y2="11.4"/>
<path class="st8" d="M33,28.5c0,5-4.3,10.9-9.5,10.9s-9.5-5.8-9.5-10.9c0.3-5.3,4.8-9.3,10.1-9C28.8,19.8,32.7,23.6,33,28.5L33,28.5
	z"/>
<path class="st0" d="M19.9,38.3H27c0.1,0,0.2,0.1,0.2,0.2v1.6l0,0h-7.5l0,0v-1.6C19.7,38.4,19.8,38.3,19.9,38.3
	C19.9,38.3,19.9,38.3,19.9,38.3z"/>
<rect x="19.7" y="40.2" class="st9" width="7.5" height="1.8"/>
<path class="st9" d="M25.3,45.5h-3.5c-0.2,0-0.3-0.1-0.4-0.2l-1.6-1.6h7.5l-1.6,1.6C25.6,45.4,25.4,45.4,25.3,45.5z"/>
<rect x="19.7" y="42" class="st0" width="7.5" height="1.7"/>
<path class="st10" d="M20,29.4c0.6-0.7,1.7-0.7,2.3-0.1c0,0,0.1,0.1,0.1,0.1c0.6,0.6,1.5,0.7,2.2,0.1c0.1,0,0.1-0.1,0.1-0.1
	c0.6-0.5,1.5-0.5,2.1,0"/>
<path class="st11" d="M25.1,29.7h-3.2c-0.2,0-0.4,0.2-0.4,0.4c0,0,0,0.1,0,0.1l1.4,4.3v3.8h1.2v-3.8l1.4-4.3c0.1-0.2,0-0.5-0.3-0.5
	C25.1,29.7,25.1,29.7,25.1,29.7z"/>
<path class="st3" d="M23.6,12.9c0-0.3-0.1-0.7-0.1-1"/>
<path class="st12" d="M23.6,9.7C24.5,3.7,30-0.5,36,0.4c1,0.1,2,0.4,3,0.9"/>
<path class="st3" d="M40,1.7c0.3,0.2,0.6,0.3,0.8,0.5"/>
</svg>
