<?xml version="1.0" encoding="utf-8"?>
<!-- Generator: Adobe Illustrator 21.1.0, SVG Export Plug-In . SVG Version: 6.00 Build 0)  -->
<svg version="1.1" id="Layer_1" xmlns="http://www.w3.org/2000/svg" xmlns:xlink="http://www.w3.org/1999/xlink" x="0px" y="0px"
	 viewBox="0 0 172 94.6" style="enable-background:new 0 0 172 94.6;" xml:space="preserve">
<style type="text/css">
	.st0{fill:#7550A1;}
	.st1{fill:#F8F7FB;}
	.st2{fill:#AD93C5;}
	.st3{fill:none;stroke:#AD93C5;stroke-width:0.7;stroke-miterlimit:10;}
	.st4{fill:none;stroke:#AD93C5;stroke-width:0.7;stroke-linecap:round;stroke-miterlimit:10;}
	.st5{fill:none;stroke:#7550A1;stroke-width:0.7;stroke-linecap:round;stroke-linejoin:round;}
	.st6{fill:#D7C9E3;}
	.st7{fill:#EBE3F1;}
	.st8{fill:#9270B1;}
	.st9{fill:none;stroke:#D7C9E3;stroke-width:0.25;stroke-linecap:round;stroke-miterlimit:10;}
	.st10{fill:none;stroke:#7550A1;stroke-width:0.25;stroke-linecap:round;stroke-miterlimit:10;}
	.st11{fill:none;stroke:#7550A1;stroke-width:0.25;stroke-linecap:round;stroke-miterlimit:10;stroke-dasharray:2.1,2.1;}
	.st12{fill:none;stroke:#7550A1;stroke-width:0.5;stroke-linecap:round;stroke-miterlimit:10;}
	.st13{fill:#A082BB;}
	.st14{fill:#C9B8DA;}
	.st15{fill:none;stroke:#7550A1;stroke-width:0.25;stroke-linecap:round;stroke-miterlimit:10;stroke-dasharray:1.89,1.89;}
</style>
<path class="st0" d="M43.6,9.1h52.3c0.5,0,0.9,0.4,0.9,0.9v69.5c0,0.5-0.4,0.9-0.9,0.9H43.6c-0.5,0-0.9-0.4-0.9-0.9V9.9
	C42.7,9.5,43.1,9.1,43.6,9.1z"/>
<path class="st1" d="M46.2,12.6h47.1c0.4,0,0.8,0.4,0.8,0.8v62.5c0,0.4-0.4,0.8-0.8,0.8H46.2c-0.4,0-0.8-0.4-0.8-0.8V13.4
	C45.4,13,45.8,12.6,46.2,12.6z"/>
<path class="st2" d="M57.6,7.6h24.2c0.3,0,0.6,0.3,0.6,0.6v5.3c0,0.3-0.3,0.6-0.6,0.6H57.6c-0.3,0-0.6-0.3-0.6-0.6V8.2
	C57,7.8,57.3,7.6,57.6,7.6z"/>
<path class="st3" d="M54.5,28.7h6.3c0.3,0,0.6,0.3,0.6,0.6v6.3c0,0.3-0.3,0.6-0.6,0.6h-6.3c-0.3,0-0.6-0.3-0.6-0.6v-6.3
	C54,29,54.2,28.7,54.5,28.7z"/>
<path class="st3" d="M54.5,42.7h6.3c0.3,0,0.6,0.3,0.6,0.6v6.3c0,0.3-0.3,0.6-0.6,0.6h-6.3c-0.3,0-0.6-0.3-0.6-0.6v-6.3
	C54,43,54.2,42.7,54.5,42.7z"/>
<path class="st3" d="M54.5,57.3h6.3c0.3,0,0.6,0.3,0.6,0.6v6.3c0,0.3-0.3,0.6-0.6,0.6h-6.3c-0.3,0-0.6-0.3-0.6-0.6v-6.3
	C54,57.6,54.2,57.3,54.5,57.3z"/>
<line class="st4" x1="65.2" y1="30.2" x2="84.8" y2="30.2"/>
<line class="st4" x1="65.2" y1="33" x2="84.8" y2="33"/>
<line class="st4" x1="65.2" y1="59" x2="84.8" y2="59"/>
<line class="st4" x1="65.2" y1="61.7" x2="84.8" y2="61.7"/>
<line class="st4" x1="65.2" y1="44" x2="84.8" y2="44"/>
<line class="st4" x1="65.2" y1="46.7" x2="75.3" y2="46.7"/>
<polyline class="st5" points="63.2,29.4 58,34 57.4,33 56.6,31.6 "/>
<polyline class="st5" points="63.2,43.4 58,47.9 57.4,46.9 56.6,45.5 "/>
<polygon class="st6" points="85.1,53.7 90.4,62.9 93.1,60.5 "/>
<polygon class="st0" points="85.1,53.7 86.3,55.9 87,55.3 "/>
<polygon class="st2" points="90.4,62.9 93.1,60.5 115.5,87.6 112.8,90 "/>
<polygon class="st0" points="90.4,62.9 90.8,62.5 113.3,89.6 112.8,90 "/>
<polygon class="st0" points="91.5,61.9 92,61.5 114.4,88.6 114,89 "/>
<polygon class="st0" points="92.7,60.9 93.1,60.5 115.5,87.6 115.1,87.9 "/>
<polygon class="st7" points="112.7,89.9 115.5,87.5 118.9,91.5 116,93.9 "/>
<path class="st2" d="M118.9,91.5c0.7,0.8,0.6,2-0.2,2.6c-0.8,0.7-2,0.6-2.6-0.2l0,0L118.9,91.5z"/>
<path class="st8" d="M34,0H10.3c-1,0-1.7,0.8-1.7,1.7v15.7c0,1,0.8,1.8,1.7,1.8c0,0,0,0,0,0h2.8l4.3,4.9c0.2,0.2,0.4,0.2,0.6,0
	c0.1-0.1,0.1-0.1,0.1-0.2l1.2-4.7H34c1,0,1.7-0.8,1.7-1.7V1.8C35.8,0.8,35,0,34,0z"/>
<line class="st9" x1="31.2" y1="6.7" x2="13.2" y2="6.7"/>
<line class="st9" x1="31.2" y1="11.5" x2="13.2" y2="11.5"/>
<path class="st10" d="M19.9,51.6c-0.3,0.1-0.7,0.1-1,0.2"/>
<path class="st11" d="M16.8,52c-9,0.3-16.4-6.8-16.7-15.7c-0.1-2.4,0.4-4.7,1.3-6.9"/>
<path class="st10" d="M1.9,28.4c0.2-0.3,0.3-0.6,0.5-0.9"/>
<line class="st12" x1="126.4" y1="68.2" x2="152.8" y2="68.2"/>
<line class="st12" x1="165.3" y1="51.5" x2="165.3" y2="55.8"/>
<line class="st12" x1="165.3" y1="59.1" x2="165.3" y2="63.4"/>
<line class="st12" x1="167.5" y1="57.5" x2="171.8" y2="57.5"/>
<line class="st12" x1="159" y1="57.5" x2="163.3" y2="57.5"/>
<path class="st13" d="M142,29h-23.3v-1.5c0-0.2-0.2-0.4-0.4-0.4h-5.7c-0.2,0-0.4,0.2-0.4,0.4V29h-2.4c-0.2,0-0.4,0.2-0.4,0.3v0v18.9
	c0,0.2,0.2,0.3,0.4,0.3l0,0H142c0.2,0,0.4-0.2,0.4-0.3c0,0,0,0,0,0V29.4C142.4,29.2,142.2,29,142,29L142,29z"/>
<path class="st14" d="M108.4,30.7h35.1c0.2,0,0.4,0.2,0.4,0.3v23.8c0,0.2-0.2,0.3-0.4,0.3h-35.1c-0.2,0-0.4-0.2-0.4-0.3V31.1
	C108,30.9,108.2,30.7,108.4,30.7z"/>
<path class="st10" d="M145.6,21.1c0.3-0.2,0.6-0.3,0.9-0.4"/>
<path class="st15" d="M148.3,20c7.8-2.2,15.9,2.4,18.1,10.2c0.6,2,0.7,4.1,0.4,6.1"/>
<path class="st10" d="M166.6,37.3c-0.1,0.3-0.2,0.7-0.2,1"/>
</svg>
