<?xml version="1.0" encoding="utf-8"?>
<!-- Generator: Adobe Illustrator 21.1.0, SVG Export Plug-In . SVG Version: 6.00 Build 0)  -->
<svg version="1.1" id="Layer_1" xmlns="http://www.w3.org/2000/svg" xmlns:xlink="http://www.w3.org/1999/xlink" x="0px" y="0px"
	 viewBox="0 0 663.7 151.5" style="enable-background:new 0 0 663.7 151.5;" xml:space="preserve">
<style type="text/css">
	.st0{fill:#C9B7DF;}
	.st1{fill:#926FBF;}
	.st2{fill:#A081C7;}
	.st3{fill:#D6C9E7;}
	.st4{fill:#FFFFFF;}
	.st5{fill:#AD93CF;}
	.st6{fill:none;stroke:#AD93CF;stroke-width:0.5;stroke-linecap:round;stroke-miterlimit:10;}
	.st7{fill:#E4DBEF;}
	.st8{fill:none;stroke:#FFCC33;stroke-width:0.5;stroke-linecap:round;stroke-miterlimit:10;}
	.st9{fill:#FFCC33;}
	.st10{fill:none;stroke:#A081C7;stroke-width:0.25;stroke-miterlimit:10;}
	.st11{fill:#E2D8EE;}
	.st12{fill:none;stroke:#F4F1F9;stroke-width:0.75;stroke-linecap:round;stroke-miterlimit:10;}
	.st13{fill:#F4F1F9;}
	.st14{fill:none;stroke:#A081C7;stroke-width:0.75;stroke-linecap:round;stroke-miterlimit:10;}
	.st15{fill:none;stroke:#FFCC33;stroke-width:0.75;stroke-linecap:round;stroke-miterlimit:10;}
	.st16{fill:none;stroke:#E4DBEF;stroke-width:0.75;stroke-linecap:round;stroke-miterlimit:10;stroke-dasharray:2;}
</style>
<title>logo</title>
<g id="about">
	<polygon class="st0" points="362.3,29.4 349.1,29.5 346.8,5.4 364.4,5.4 	"/>
	<polygon class="st1" points="363,20.8 348.3,20.8 347.5,12.3 363.8,12.3 	"/>
	<path class="st2" d="M346.3,4.2H365c0.1,0,0.2,0.1,0.2,0.2v0.9c0,0.1-0.1,0.2-0.2,0.2h-18.7c-0.1,0-0.2-0.1-0.2-0.2V4.4
		C346.1,4.3,346.2,4.2,346.3,4.2z"/>
	<polygon class="st0" points="364.2,4.2 347,4.2 348.9,0 362.1,0 	"/>
</g>
<g id="icons">
	<path class="st3" d="M162.7,69.7h118.7c0.7,0,1.3,0.6,1.3,1.3v75.5c0,0.7-0.6,1.3-1.3,1.3H162.7c-0.7,0-1.3-0.6-1.3-1.3V71
		C161.4,70.3,162,69.7,162.7,69.7z"/>
	<path class="st4" d="M172.6,75.5h98.9c0.6,0,1.1,0.5,1.1,1.1v62.9c0,0.6-0.5,1.1-1.1,1.1h-98.9c-0.6,0-1.1-0.5-1.1-1.1V76.6
		C171.5,76,172,75.5,172.6,75.5z"/>
	<path class="st2" d="M292.4,146.1v-0.8c0-0.7-0.5-1.2-1.2-1.2h-59.4l-1,1.5h-19L211,144h-58.7c-0.6,0-1.2,0.5-1.2,1.1l6.4,6.4
		h129.5L292.4,146.1z"/>
	<path class="st5" d="M454.8,69.8c-0.4,0-0.7,0.1-1,0.3v-0.3c0-3.9-3.2-7-7-7c-3.9,0-7,3.2-7,7V79h-1.9v-5.2c0-1.1-0.9-2-2-2
		s-2,0.9-2,2v7.2c0,1.1,0.9,2,2,2h3.9v6.1c0,3.9,3.2,7,7,7c3.9,0,7-3.2,7-7v-6.4c0.3,0.2,0.6,0.3,1,0.3c1,0,1.8-0.8,1.8-1.8v-9.5
		C456.6,70.6,455.8,69.8,454.8,69.8z"/>
	<rect x="429.9" y="89.8" class="st4" width="32.2" height="8.7"/>
	<polygon class="st2" points="454.3,115 437.4,115 431.6,98.5 460.5,98.5 	"/>
	<path class="st6" d="M364.5,122.2c3.5,0,6.3-2.5,6.3-5.6s-2.8-5.6-6.3-5.6"/>
	<path class="st7" d="M342.6,109.5h23.2c0.2,0,0.4,0.2,0.4,0.4v6.8l0,0c-0.1,4.6-2.6,8.7-6.7,10.8h0.1v3.5h-10.7v-3.5h0.1
		c-4-2.1-6.6-6.2-6.7-10.8l0,0v-6.8C342.3,109.6,342.4,109.5,342.6,109.5z"/>
	<path class="st5" d="M360.2,131.5h-12.6c0,0-0.1,0-0.1-0.1v-1.4c0,0,0-0.1,0.1-0.1h12.6c0,0,0.1,0,0.1,0.1L360.2,131.5
		C360.3,131.5,360.3,131.5,360.2,131.5z"/>
	<path class="st5" d="M366.1,109.8h-23.8c0,0-0.1,0-0.1-0.1v-0.7c0,0,0-0.1,0.1-0.1h23.8c0,0,0.1,0,0.1,0.1L366.1,109.8
		C366.2,109.8,366.1,109.8,366.1,109.8z"/>
	<line class="st8" x1="18.1" y1="78" x2="11.7" y2="78"/>
	<line class="st8" x1="6.7" y1="78" x2="0.2" y2="78"/>
	<line class="st8" x1="9.1" y1="80.9" x2="9.1" y2="86.6"/>
	<line class="st8" x1="9.1" y1="69.6" x2="9.1" y2="75.3"/>
	<circle class="st9" cx="75.4" cy="63.2" r="4.6"/>
	<path class="st4" d="M88.2,90h44.7l0,0v23c0,1.1-0.9,2-2,2H90.2c-1.1,0-2.1-0.9-2.1-2L88.2,90L88.2,90z"/>
	<path class="st2" d="M111.9,106.6l21-16.6H88.2l21,16.6C110,107.3,111.1,107.3,111.9,106.6z"/>
	<line class="st10" x1="102.6" y1="101.5" x2="88.7" y2="114.4"/>
	<line class="st10" x1="118.3" y1="101.5" x2="132.2" y2="114.4"/>
	<path class="st11" d="M23.2,62L23.2,62C22,62,21,61,21,59.8V39.9c0-1.2,1-2.2,2.2-2.2h0c1.2,0,2.2,1,2.2,2.2v19.9
		C25.3,61,24.4,62,23.2,62z"/>
	<path class="st9" d="M398.9,140L398.9,140c0,1.3-1,2.3-2.2,2.3h-16c-1.2,0-2.2-1-2.2-2.2v0c0-1.2,1-2.2,2.2-2.2h16
		C397.9,137.8,398.9,138.8,398.9,140z"/>
	
		<ellipse transform="matrix(0.9959 -9.028494e-02 9.028494e-02 0.9959 -10.5067 55.4721)" class="st9" cx="607.9" cy="143.9" rx="6" ry="6"/>
	<path class="st5" d="M525.8,66h10.1c1,0,1.9,0.8,1.9,1.9v72.3c0,1-0.8,1.9-1.9,1.9h-10.1c-1,0-1.9-0.8-1.9-1.9V67.8
		C523.9,66.8,524.8,66,525.8,66z"/>
	<rect x="523.9" y="81.5" class="st4" width="13.8" height="4.4"/>
	<path class="st0" d="M511.9,70.9h10.3c1,0,1.8,0.8,1.8,1.8v67.4c0,1-0.8,1.8-1.8,1.8h-10.3c-1,0-1.8-0.8-1.8-1.8V72.7
		C510.1,71.7,510.9,70.9,511.9,70.9z"/>
	<rect x="510.1" y="129.1" class="st1" width="13.8" height="6.6"/>
	<rect x="510.1" y="125" class="st1" width="13.8" height="2.3"/>
	<rect x="510.1" y="80.3" class="st1" width="13.8" height="2.3"/>
	<path class="st1" d="M491.1,74.8l8.3,1.1c0.9,0.1,1.5,0.9,1.4,1.8l-8,63c-0.1,0.9-0.9,1.5-1.8,1.4l-8.3-1.1
		c-0.9-0.1-1.5-0.9-1.4-1.8l8-63C489.4,75.3,490.2,74.7,491.1,74.8z"/>
	
		<rect x="491.9" y="78.9" transform="matrix(0.1264 -0.992 0.992 0.1264 347.6012 564.0564)" class="st3" width="4.2" height="11.5"/>
	
		<rect x="492.9" y="82.4" transform="matrix(0.1264 -0.992 0.992 0.1264 343.7846 566.636)" class="st3" width="1.5" height="11.5"/>
	<path class="st5" d="M501.4,81.5h7.3c0.8,0,1.4,0.6,1.4,1.4v57.6c0,0.8-0.6,1.4-1.4,1.4h-7.3c-0.8,0-1.4-0.6-1.4-1.4V82.9
		C499.9,82.1,500.6,81.5,501.4,81.5z"/>
	<rect x="499.9" y="134.9" class="st4" width="10.2" height="1.6"/>
	<rect x="499.9" y="86.8" class="st4" width="10.2" height="2.6"/>
	<line class="st12" x1="534.9" y1="112.7" x2="594.1" y2="112.7"/>
	<path class="st2" d="M321.2,79.8l-0.3,0.3c-3.3,2.7-4.2,7.4-2.2,11.1c-0.1,0-0.1,0.1-0.2,0.1l-9.7,7.9c-0.2,0.2-0.3,0.5-0.1,0.7
		c0,0,0,0,0,0l1.4,1.8c0.2,0.2,0.5,0.3,0.7,0.1c0,0,0,0,0,0l9.7-7.9c0,0,0.1-0.1,0.1-0.1c3.2,3,8.2,3.2,11.6,0.4l0.3-0.3
		c3.8-3.1,4.4-8.7,1.3-12.5l-0.3-0.3C330.5,77.3,325,76.7,321.2,79.8z"/>
	<path class="st13" d="M331.3,92.3l-0.3,0.2c-2.9,2.4-7.2,1.9-9.6-1l-0.2-0.3c-2.4-2.9-1.9-7.2,1-9.6l0.3-0.2c2.9-2.4,7.2-1.9,9.6,1
		l0.2,0.3C334.6,85.6,334.2,89.9,331.3,92.3z"/>
	<path class="st4" d="M318.1,96.3l-4.9,4c-0.2,0.1-0.4,0.1-0.6-0.1l-2-2.5c-0.1-0.2-0.1-0.4,0.1-0.6l4.9-4c0.2-0.1,0.4-0.1,0.6,0.1
		l2,2.5C318.3,95.9,318.3,96.1,318.1,96.3z"/>
	<polyline class="st14" points="47.4,89.1 47.4,102.2 94,102.2 	"/>
	<line class="st15" x1="663.4" y1="65.8" x2="656.7" y2="65.8"/>
	<line class="st15" x1="651.6" y1="65.8" x2="645" y2="65.8"/>
	<line class="st15" x1="654.1" y1="68.6" x2="654.1" y2="74.4"/>
	<line class="st15" x1="654.1" y1="57.3" x2="654.1" y2="63.1"/>
	<path class="st11" d="M632,132.2L632,132.2c-1,0-1.9-0.8-1.9-1.9v-25.2c0-1,0.8-1.9,1.9-1.9l0,0c1,0,1.9,0.8,1.9,1.9v25.2
		C633.9,131.3,633.1,132.2,632,132.2z"/>
	<polyline class="st16" points="328,69.1 328,54.3 409.9,54.3 	"/>
</g>
</svg>
