<?xml version="1.0" encoding="utf-8"?>
<!-- Generator: Adobe Illustrator 21.1.0, SVG Export Plug-In . SVG Version: 6.00 Build 0)  -->
<svg version="1.1" id="Layer_1" xmlns="http://www.w3.org/2000/svg" xmlns:xlink="http://www.w3.org/1999/xlink" x="0px" y="0px"
	 viewBox="0 0 200 150" style="enable-background:new 0 0 200 150;" xml:space="preserve">
<style type="text/css">
	.st0{fill:#E4DBEF;}
	.st1{fill:#A081C7;}
	.st2{fill:#D6C9E7;}
	.st3{fill:#774BAF;}
	.st4{fill:none;stroke:#774BAF;stroke-linecap:round;stroke-miterlimit:10;}
	.st5{fill:none;stroke:#774BAF;stroke-width:1.5;stroke-linecap:round;stroke-miterlimit:10;}
	.st6{fill:none;stroke:#774BAF;stroke-width:0.5;stroke-linecap:round;stroke-miterlimit:10;}
	.st7{fill:#926FBF;}
	.st8{enable-background:new    ;}
	.st9{fill:#EBE4F3;}
	.st10{fill:#F7F4FA;}
	.st11{fill:none;stroke:#774BAF;stroke-width:0.5;stroke-linecap:round;stroke-miterlimit:10;stroke-dasharray:1.99,1.99;}
	.st12{fill:#AD93CF;}
	.st13{fill:none;stroke:#A081C7;stroke-width:0.5;stroke-linecap:round;stroke-miterlimit:10;}
	.st14{fill:none;stroke:#774BAF;stroke-width:0.25;stroke-linecap:round;stroke-miterlimit:10;}
	.st15{fill:none;stroke:#774BAF;stroke-width:0.5;stroke-linecap:round;stroke-miterlimit:10;stroke-dasharray:1.84,1.84;}
	.st16{fill:#C9B7DF;}
	.st17{fill:none;stroke:#774BAF;stroke-width:0.2654;stroke-linecap:round;stroke-miterlimit:10;}
	.st18{fill:none;stroke:#774BAF;stroke-width:0.2654;stroke-linecap:round;stroke-miterlimit:10;stroke-dasharray:1.9742,1.9742;}
	.st19{fill:none;stroke:#926FBF;stroke-width:0.2654;stroke-linecap:round;stroke-miterlimit:10;}
	.st20{fill:none;stroke:#774BAF;stroke-width:0.5307;stroke-linecap:round;stroke-miterlimit:10;}
	.st21{fill:none;stroke:#D6C9E7;stroke-width:0.2654;stroke-linecap:round;stroke-miterlimit:10;}
</style>
<polygon class="st0" points="150.3,55.5 150.3,106.4 98.9,106.4 98.9,47.4 142.2,47.4 "/>
<path class="st7" d="M158,43.7h15.2c0.6,0,1.1,0.5,1.1,1.1l0,0v10c0,0.6-0.5,1.1-1.1,1.1l0,0h-1.8l-2.8,3.1c-0.1,0.1-0.3,0.1-0.4,0
	c0,0-0.1-0.1-0.1-0.1l-0.8-3H158c-0.6,0-1.1-0.5-1.1-1.1l0,0v-10C156.9,44.2,157.4,43.7,158,43.7L158,43.7z"/>
<path class="st12" d="M151,98.5h13.5c0.6,0,1,0.4,1,1V121c0,0.6-0.4,1-1,1H151c-0.6,0-1-0.4-1-1V99.5C150,99,150.5,98.5,151,98.5z"
	/>
<circle class="st9" cx="162.9" cy="103.6" r="1"/>
<polygon class="st2" points="128,81.3 139.4,83.4 139.3,79.4 "/>
<polygon class="st3" points="128,81.3 130.6,81.8 130.7,80.9 "/>
<polygon class="st12" points="139.4,83.4 139.3,79.4 177.8,79.7 177.9,83.7 "/>
<polygon class="st3" points="139.4,83.4 139.4,82.8 177.9,83.1 177.9,83.7 "/>
<polygon class="st3" points="139.4,81.7 139.4,81.1 177.9,81.4 177.9,82.1 "/>
<polygon class="st3" points="139.3,80.1 139.3,79.4 177.8,79.7 177.8,80.4 "/>
<polygon class="st9" points="177.7,83.7 177.7,79.7 183.5,79.7 183.5,83.8 "/>
<path class="st12" d="M183.5,79.7c1.1,0,2,0.9,2,2c0,1.1-0.9,2-2,2V79.7z"/>
<path class="st16" d="M163.7,71.6h-0.2h-0.2c-1,0-1.8,0.8-2,1.7v0.1v-0.9c0.1-1.1-0.8-2.1-1.9-2.2c-1.1-0.1-2.1,0.8-2.2,1.9
	c0,0.1,0,0.2,0,0.3v-2.2c-0.1-1.2-1.1-2.1-2.3-2c-1.1,0.1-2,0.9-2,2v2.4c0-1.2-1-2.2-2.2-2.2s-2.2,1-2.2,2.2V78
	c0-1.3-1.1-2.4-2.4-2.4c-1.3,0-2.4,1.1-2.4,2.4v7.9c0,0.8,0.4,1.6,1.1,2l0,0l6.8,6.1l0,0v4.6h12.2V94l0,0v-1.2l1-2.2
	c0.3-0.3,0.5-0.6,0.6-0.9c0.5-0.5,0.8-1.1,0.8-1.8V74.1C166.2,72.7,165.1,71.6,163.7,71.6C163.7,71.6,163.7,71.6,163.7,71.6z"/>
<path class="st3" d="M149.2,97.4h17.2c0.3,0,0.5,0.2,0.5,0.5v2.3c0,0.3-0.2,0.5-0.5,0.5h-17.2c-0.3,0-0.5-0.2-0.5-0.5v-2.3
	C148.7,97.6,148.9,97.4,149.2,97.4z"/>
<polygon class="st12" points="142.2,47.4 142.2,55.5 150.3,55.5 "/>
<circle class="st7" cx="111.9" cy="60" r="5.3"/>
<path class="st17" d="M139.4,41.9c0-0.4,0.1-0.7,0.2-1.1"/>
<path class="st18" d="M140.3,38.9c2.4-5.2,8.5-7.4,13.6-5.1c0.8,0.4,1.5,0.8,2.2,1.4"/>
<path class="st17" d="M156.9,35.9c0.3,0.2,0.5,0.5,0.7,0.8"/>
<line class="st19" x1="123.6" y1="61.3" x2="140.7" y2="61.3"/>
<line class="st19" x1="123.6" y1="64.3" x2="140.7" y2="64.3"/>
<line class="st19" x1="123.6" y1="67.6" x2="140.7" y2="67.6"/>
<path class="st7" d="M58.3,61.7l35.1-6.2c0.3-0.1,0.7,0.2,0.7,0.5l7.6,42.7c0.1,0.3-0.2,0.7-0.5,0.7l-35.1,6.2
	c-0.3,0.1-0.7-0.2-0.7-0.5l-7.6-42.7C57.7,62.1,57.9,61.7,58.3,61.7z"/>
<path class="st3" d="M57.9,61.1l2.3-0.4c0.2,0,0.4,0.1,0.5,0.3l7.9,44.4c0,0.2-0.1,0.4-0.3,0.5l-2.3,0.4c-0.2,0-0.4-0.1-0.5-0.3
	l-7.9-44.4C57.6,61.4,57.7,61.2,57.9,61.1z"/>
<path class="st0" d="M69.8,66l17.4-3.1c0.1,0,0.2,0.1,0.3,0.2L89,72c0,0.1-0.1,0.2-0.2,0.3l-17.4,3.1c-0.1,0-0.2-0.1-0.3-0.2
	l-1.6-8.9C69.6,66.2,69.7,66,69.8,66z"/>
<line class="st20" x1="47.1" y1="50.3" x2="63.3" y2="50.3"/>
<line class="st20" x1="19.8" y1="67" x2="49.9" y2="67"/>
<line class="st20" x1="32.3" y1="41.8" x2="32.3" y2="44.6"/>
<line class="st20" x1="32.3" y1="46.7" x2="32.3" y2="49.4"/>
<line class="st20" x1="33.7" y1="45.7" x2="36.4" y2="45.7"/>
<line class="st20" x1="28.3" y1="45.7" x2="31" y2="45.7"/>
<line class="st20" x1="130.6" y1="114.4" x2="130.6" y2="117.1"/>
<line class="st20" x1="130.6" y1="119.2" x2="130.6" y2="122"/>
<line class="st20" x1="132" y1="118.2" x2="134.7" y2="118.2"/>
<line class="st20" x1="126.6" y1="118.2" x2="129.3" y2="118.2"/>
<polyline class="st17" points="108.1,115.8 116.6,115.8 116.6,89.8 "/>
<line class="st21" x1="159.8" y1="48" x2="171.3" y2="48"/>
<line class="st21" x1="159.8" y1="51" x2="171.3" y2="51"/>
</svg>
