<svg xmlns="http://www.w3.org/2000/svg" xmlns:xlink="http://www.w3.org/1999/xlink" viewBox="0 0 1022.4 396"><defs><style>.cls-1{fill:#774baf;}.cls-2{fill:#926fbf;}.cls-3{fill:#c9b7df;}.cls-4{fill:#f4ad0f;}.cls-5{fill:#fc3;}.cls-6{fill:#a081c7;}.cls-7{fill:#ad93cf;}.cls-8{fill:#e2d8ee;}.cls-9{fill:#e4dbef;}.cls-10{fill:url(#linear-gradient);}.cls-11{fill:#bba5d7;}.cls-12{fill:url(#linear-gradient-2);}.cls-13,.cls-15,.cls-20{fill:none;stroke-miterlimit:10;}.cls-13{stroke:#fc3;}.cls-13,.cls-20{stroke-linecap:round;stroke-width:0.75px;}.cls-14{fill:#d6c9e7;}.cls-15{stroke:#a081c7;stroke-width:0.5px;}.cls-16{fill:#d7cae7;}.cls-17{fill:url(#linear-gradient-3);}.cls-18{fill:url(#linear-gradient-4);}.cls-19{fill:url(#linear-gradient-5);}.cls-20{stroke:#774baf;}</style><linearGradient id="linear-gradient" x1="815.58" y1="229.54" x2="815.58" y2="146.73" gradientTransform="matrix(1, 0, 0, -1, 130.95, 376.27)" gradientUnits="userSpaceOnUse"><stop offset="0" stop-color="#fff"/><stop offset="0.04" stop-color="#f6f3f9"/><stop offset="0.13" stop-color="#e5ddf0"/><stop offset="0.23" stop-color="#d9cce8"/><stop offset="0.35" stop-color="#d0c0e3"/><stop offset="0.53" stop-color="#cab9e0"/><stop offset="1" stop-color="#c9b7df"/></linearGradient><linearGradient id="linear-gradient-2" x1="99.92" y1="246.15" x2="99.92" y2="86.48" gradientTransform="matrix(1, 0, 0, 1, 0, 0)" xlink:href="#linear-gradient"/><linearGradient id="linear-gradient-3" x1="775.3" y1="375.79" x2="775.3" y2="366.59" gradientUnits="userSpaceOnUse"><stop offset="0" stop-color="#fff"/><stop offset="0.01" stop-color="#f9f7fb"/><stop offset="0.07" stop-color="#e1d8ed"/><stop offset="0.14" stop-color="#cdbce1"/><stop offset="0.22" stop-color="#bca6d8"/><stop offset="0.31" stop-color="#af95d0"/><stop offset="0.42" stop-color="#a78acb"/><stop offset="0.57" stop-color="#a183c8"/><stop offset="1" stop-color="#a081c7"/></linearGradient><linearGradient id="linear-gradient-4" x1="333.24" y1="346.79" x2="333.24" y2="337.59" xlink:href="#linear-gradient-3"/><linearGradient id="linear-gradient-5" x1="918.92" y1="375.81" x2="918.92" y2="366.57" gradientUnits="userSpaceOnUse"><stop offset="0" stop-color="#fff"/><stop offset="0.09" stop-color="#fff7e1"/><stop offset="0.26" stop-color="#ffeaac"/><stop offset="0.43" stop-color="#ffdf81"/><stop offset="0.59" stop-color="#ffd75f"/><stop offset="0.74" stop-color="#ffd147"/><stop offset="0.88" stop-color="#ffcd38"/><stop offset="1" stop-color="#fc3"/></linearGradient></defs><title>logo</title><g id="contact"><path class="cls-1" d="M705.2,211.84a3,3,0,0,0-.42,0,9.7,9.7,0,0,0-8.64-7.57v-3.52a5.29,5.29,0,0,0-5.27-5.27h0a5.28,5.28,0,0,0-4.75,3v-2.18a3.46,3.46,0,0,0-3.45-3.45,3.38,3.38,0,0,0-.47,0,10.83,10.83,0,0,0-9.65-8.45v-3.93a5.9,5.9,0,0,0-5.88-5.88h0a5.9,5.9,0,0,0-5.88,5.88V188a8.3,8.3,0,0,0-12.51,9.5,21.63,21.63,0,0,0-18.2,21.34H667A19.31,19.31,0,0,0,658.1,235h38.76l5.25-.06h6.18v-20A3.1,3.1,0,0,0,705.2,211.84Z"/><path class="cls-1" d="M358.07,208.15a4.49,4.49,0,0,0-.62.06,14.46,14.46,0,0,0-12.87-11.28v-5.25a7.87,7.87,0,0,0-7.85-7.85h0a7.87,7.87,0,0,0-7.08,4.48v-3.24a5.16,5.16,0,0,0-5.14-5.14,5,5,0,0,0-.7.07,16.14,16.14,0,0,0-14.37-12.59v-5.86a8.79,8.79,0,0,0-8.77-8.77h0a8.79,8.79,0,0,0-8.77,8.77v11a12.37,12.37,0,0,0-18.64,14.15,32.22,32.22,0,0,0-27.11,31.8h54.93A28.77,28.77,0,0,0,287.9,242.7h57.75l7.82-.09h9.21V212.76A4.62,4.62,0,0,0,358.07,208.15Z"/><rect class="cls-2" x="611.51" y="187.19" width="51.37" height="32.33" rx="0.7" ry="0.7"/><rect class="cls-3" x="608.56" y="185.01" width="57.52" height="4.16" rx="0.84" ry="0.84"/><rect class="cls-2" x="803.61" y="155.11" width="42.17" height="62.29"/><rect class="cls-1" x="827.56" y="170.75" width="13.78" height="4.47"/><rect class="cls-1" x="827.56" y="180.36" width="13.78" height="4.47"/><path class="cls-4" d="M403.17,218.25h5.4V200.75a2.71,2.71,0,0,0-2.7-2.7,2.64,2.64,0,0,0-.37,0,8.48,8.48,0,0,0-7.55-6.61v-3.08a4.62,4.62,0,0,0-4.6-4.6h0a4.62,4.62,0,0,0-4.6,4.6v5.78a6.5,6.5,0,0,0-9.79,7.43,16.92,16.92,0,0,0-14.24,16.7h33.87"/><path class="cls-5" d="M428.33,218.26h4.09V205a2.05,2.05,0,0,0-2-2l-.28,0a6.43,6.43,0,0,0-5.72-5v-2.33a3.5,3.5,0,0,0-3.49-3.49h0a3.5,3.5,0,0,0-3.49,3.49V200a4.93,4.93,0,0,0-7.42,5.63,12.83,12.83,0,0,0-10.79,12.66h25.67"/><rect class="cls-1" x="809.8" y="151.26" width="38.45" height="3.85" rx="0.66" ry="0.66"/><rect class="cls-3" x="779.41" y="149.2" width="42.17" height="68.67"/><rect class="cls-6" x="779.41" y="157.32" width="42.17" height="1.91" transform="translate(1600.99 316.54) rotate(180)"/><rect class="cls-7" x="784.07" y="168.95" width="6.11" height="2.88"/><rect class="cls-5" x="784.07" y="163.23" width="6.11" height="5.72"/><rect class="cls-1" x="783.55" y="171.69" width="7.26" height="0.68"/><rect class="cls-7" x="796.38" y="168.95" width="6.11" height="2.88"/><rect class="cls-8" x="796.38" y="163.23" width="6.11" height="5.72"/><rect class="cls-1" x="795.87" y="171.69" width="7.26" height="0.68"/><rect class="cls-7" x="796.38" y="182.67" width="6.11" height="2.88"/><rect class="cls-8" x="796.38" y="176.95" width="6.11" height="5.72"/><rect class="cls-1" x="795.87" y="185.4" width="7.26" height="0.68"/><rect class="cls-7" x="784.07" y="196.13" width="6.11" height="2.88"/><rect class="cls-8" x="784.07" y="190.42" width="6.11" height="5.72"/><rect class="cls-1" x="783.55" y="198.87" width="7.26" height="0.68"/><rect class="cls-7" x="796.38" y="196.13" width="6.11" height="2.88"/><rect class="cls-8" x="796.38" y="190.42" width="6.11" height="5.72"/><rect class="cls-1" x="795.87" y="198.87" width="7.26" height="0.68"/><rect class="cls-7" x="808.69" y="182.67" width="6.11" height="2.88"/><rect class="cls-5" x="808.69" y="176.95" width="6.11" height="5.72"/><rect class="cls-1" x="808.18" y="185.4" width="7.26" height="0.68"/><rect class="cls-3" x="810.71" y="143.78" width="6.23" height="3.89"/><rect class="cls-1" x="809.68" y="142.32" width="8.29" height="1.46" rx="0.36" ry="0.36"/><rect class="cls-6" x="777.63" y="147.67" width="45.74" height="4.58" rx="0.78" ry="0.78"/><path class="cls-7" d="M807,202h8.47a.58.58,0,0,1,.58.58v14.86a0,0,0,0,1,0,0h-9.63a0,0,0,0,1,0,0V202.54A.58.58,0,0,1,807,202Z"/><path class="cls-4" d="M613.56,219.33h3v-9.79a1.51,1.51,0,0,0-1.51-1.51l-.2,0a4.74,4.74,0,0,0-4.22-3.7v-1.72a2.58,2.58,0,0,0-2.58-2.58h0a2.58,2.58,0,0,0-2.58,2.58v3.23A3.64,3.64,0,0,0,600,210a9.47,9.47,0,0,0-8,9.34H611"/><path class="cls-5" d="M835.14,219.32h4.09V206a2.05,2.05,0,0,0-2-2l-.28,0a6.43,6.43,0,0,0-5.72-5v-2.33a3.5,3.5,0,0,0-3.49-3.49h0a3.5,3.5,0,0,0-3.49,3.49v4.38a4.93,4.93,0,0,0-7.42,5.63A12.83,12.83,0,0,0,806,219.36h25.67"/><rect class="cls-6" x="838.35" y="169.92" width="26.11" height="53.92" rx="0.64" ry="0.64"/><rect class="cls-2" x="430.24" y="170.78" width="46.59" height="47.52" rx="0.8" ry="0.8"/><rect class="cls-1" x="435.77" y="178.13" width="13.78" height="4.47"/><rect class="cls-1" x="435.77" y="187.3" width="13.78" height="4.47"/><rect class="cls-5" x="435.77" y="196.92" width="13.78" height="4.47"/><rect class="cls-2" x="479.02" y="155.51" width="42.17" height="62.29"/><rect class="cls-1" x="485.21" y="151.65" width="38.45" height="3.85" rx="0.66" ry="0.66"/><rect class="cls-7" x="503.32" y="161.33" width="13.78" height="4.47"/><rect class="cls-1" x="503.32" y="170.5" width="13.78" height="4.47"/><rect class="cls-1" x="503.32" y="180.11" width="13.78" height="4.47"/><rect class="cls-2" x="219.75" y="90.36" width="46.59" height="128.3" rx="1.32" ry="1.32"/><rect class="cls-2" x="884.48" y="90.36" width="46.59" height="128.3" rx="1.32" ry="1.32"/><rect class="cls-7" x="235.48" y="135.17" width="42.05" height="86.83" rx="1.03" ry="1.03"/><rect class="cls-9" x="242.07" y="143.63" width="12.83" height="5.4"/><rect class="cls-9" x="259.37" y="143.63" width="12.83" height="5.4"/><rect class="cls-5" x="242.07" y="152.89" width="12.83" height="5.4"/><rect class="cls-9" x="259.37" y="152.89" width="12.83" height="5.4"/><rect class="cls-9" x="242.07" y="162.16" width="12.83" height="5.4"/><rect class="cls-9" x="259.37" y="171.85" width="12.83" height="5.4"/><rect class="cls-5" x="242.07" y="181.11" width="12.83" height="5.4"/><rect class="cls-9" x="259.37" y="181.11" width="12.83" height="5.4"/><rect class="cls-9" x="242.07" y="190.38" width="12.83" height="5.4"/><rect class="cls-10" x="926.27" y="146.73" width="40.52" height="82.81" rx="16.15" ry="16.15" transform="translate(1893.06 376.27) rotate(-180)"/><path class="cls-5" d="M966.79,173a4.17,4.17,0,0,1-8.34,0v-3.54a4.17,4.17,0,0,0-8.34,0V186a4.18,4.18,0,0,1-4.18,4.16h0a4.18,4.18,0,0,1-4.18-4.16V185h0c0-.06,0-.11,0-.16v-6.33a4.17,4.17,0,0,0-8.34,0v2.35l0,0v.12a3.63,3.63,0,0,1-7.25,0V165.71s0-.08,0-.13,0-.15,0-.23c0-11.15,2.74-20.2,20.3-20.2,18.45,0,20.37,8.88,20.27,19.5Z"/><rect class="cls-6" x="121.63" y="126.14" width="55.72" height="103.22" rx="21.14" ry="21.14"/><path class="cls-4" d="M123,162a5.57,5.57,0,0,0,11.14,0v-4.73a5.57,5.57,0,0,1,11.14,0v22.17a5.58,5.58,0,0,0,5.59,5.54h0a5.58,5.58,0,0,0,5.59-5.54V178h0c0-.07,0-.14,0-.22v-8.44a5.57,5.57,0,0,1,11.14,0v3.13l0,0v.16a4.84,4.84,0,0,0,9.69,0v-20.3c0-.06,0-.11,0-.17s0-.2,0-.3c0-14.87-3.66-26.93-27.13-26.93-24.66,0-27.22,11.84-27.09,26Z"/><path class="cls-3" d="M562.84,220.32h-5c-.12,0-.22-.15-.22-.33l.88-27.81c0-.17.1-.3.22-.3H562c.12,0,.21.13.22.3l.88,27.81C563.06,220.17,563,220.32,562.84,220.32Z"/><path class="cls-11" d="M326.1,227.32V163.5a19.5,19.5,0,0,1,19.44-19.44h.65a19.5,19.5,0,0,1,19.44,19.44v63.82Z"/><path class="cls-9" d="M346.19,144.06a19.5,19.5,0,0,1,19.44,19.44v63.82H346.11Z"/><rect class="cls-12" x="68.42" y="86.48" width="62.99" height="159.67" rx="27.95" ry="27.95"/><path class="cls-5" d="M68.42,137.05c0,4.4,2.92,8,6.48,8s6.48-3.6,6.48-8v-6.83c0-4.4,2.92-8,6.48-8s6.48,3.6,6.48,8v32.06c0,4.41,2.92,8,6.5,8h0c3.57,0,6.5-3.61,6.5-8v-2h0c0-.11,0-.21,0-.32V147.72c0-4.4,2.92-8,6.48-8s6.48,3.6,6.48,8v4.53l0,0v.23c0,3.82,2.54,7,5.64,7s5.64-3.13,5.64-7V123.08c0-.08,0-.16,0-.24s0-.29,0-.44c0-21.51-4.26-38.95-31.57-38.95-28.68,0-31.67,17.12-31.51,37.61Z"/><rect class="cls-6" x="618.87" y="327" width="57.54" height="7.69" rx="3.84" ry="3.84"/><rect class="cls-3" x="829.36" y="318.4" width="55.13" height="15.58" rx="7.79" ry="7.79"/><circle class="cls-5" cx="97.63" cy="266.35" r="3.66"/><path class="cls-8" d="M313.71,106H284.93a2.56,2.56,0,0,0,0,5.11h10.29a1.14,1.14,0,0,1,.9,1.1c0,.64-.72,1.83-1.35,1.83h-4.27a1.71,1.71,0,0,0-1.7,1.7V116a1.71,1.71,0,0,0,1.7,1.7h20.73a1.71,1.71,0,0,0,1.7-1.7v-.25a1.71,1.71,0,0,0-1.7-1.7h-9.06a1.16,1.16,0,0,1-1.16-1.16h0a1.16,1.16,0,0,1,1.16-1.16h11.54a2.88,2.88,0,0,0,2.87-2.87h0A2.88,2.88,0,0,0,313.71,106Z"/><path class="cls-8" d="M165.4,77.6H136.62a2.56,2.56,0,0,0,0,5.11h10.29a1.14,1.14,0,0,1,.9,1.1c0,.64-.72,1.83-1.35,1.83h-4.27a1.71,1.71,0,0,0-1.7,1.7v.25a1.71,1.71,0,0,0,1.7,1.7h20.73a1.71,1.71,0,0,0,1.7-1.7v-.25a1.71,1.71,0,0,0-1.7-1.7h-9.06a1.16,1.16,0,0,1-1.16-1.16h0a1.16,1.16,0,0,1,1.16-1.16H165.4a2.88,2.88,0,0,0,2.87-2.87h0A2.88,2.88,0,0,0,165.4,77.6Z"/><path class="cls-7" d="M679.89,73.49H651.11a2.56,2.56,0,0,0,0,5.11H661.4a1.14,1.14,0,0,1,.9,1.1c0,.64-.72,1.83-1.35,1.83h-4.27a1.71,1.71,0,0,0-1.7,1.7v.25a1.71,1.71,0,0,0,1.7,1.7h20.73a1.71,1.71,0,0,0,1.7-1.7v-.25a1.71,1.71,0,0,0-1.7-1.7h-9.06a1.16,1.16,0,0,1-1.16-1.16h0a1.16,1.16,0,0,1,1.16-1.16h11.54a2.88,2.88,0,0,0,2.87-2.87h0A2.88,2.88,0,0,0,679.89,73.49Z"/><rect class="cls-3" x="573.86" y="102.43" width="28.46" height="7.18" rx="3.59" ry="3.59"/><circle class="cls-5" cx="338.35" cy="103.24" r="2.66"/><circle class="cls-5" cx="700.35" cy="94.24" r="2.66"/><rect class="cls-8" x="441.32" y="87.75" width="3.13" height="13.59" rx="1.35" ry="1.35"/><rect class="cls-5" x="572.29" y="57.22" width="3.13" height="13.59" rx="1.35" ry="1.35"/><rect class="cls-5" x="813.32" y="103.75" width="3.13" height="13.59" rx="1.35" ry="1.35"/><line class="cls-13" x1="411.92" y1="103.97" x2="440.28" y2="122.67"/><line class="cls-13" x1="393.03" y1="99.8" x2="434.64" y2="127.24"/><rect class="cls-8" x="544.67" y="186.62" width="28.61" height="7.26" rx="3.63" ry="3.63"/><rect class="cls-8" x="553.58" y="178.28" width="28" height="9.47" rx="4.17" ry="4.17"/><rect class="cls-8" x="547.9" y="174.28" width="22.12" height="6.34" rx="3.17" ry="3.17"/><rect class="cls-3" x="454.83" y="149.59" width="42.17" height="68.21"/><rect class="cls-6" x="454.83" y="157.71" width="42.17" height="1.91" transform="translate(951.83 317.33) rotate(180)"/><rect class="cls-7" x="459.49" y="169.34" width="6.11" height="2.88"/><rect class="cls-5" x="459.49" y="163.63" width="6.11" height="5.72"/><rect class="cls-1" x="458.97" y="172.08" width="7.26" height="0.68"/><rect class="cls-7" x="471.8" y="169.34" width="6.11" height="2.88"/><rect class="cls-8" x="471.8" y="163.63" width="6.11" height="5.72"/><rect class="cls-1" x="471.28" y="172.08" width="7.26" height="0.68"/><rect class="cls-7" x="471.8" y="183.06" width="6.11" height="2.88"/><rect class="cls-8" x="471.8" y="177.35" width="6.11" height="5.72"/><rect class="cls-1" x="471.28" y="185.8" width="7.26" height="0.68"/><rect class="cls-7" x="459.49" y="196.53" width="6.11" height="2.88"/><rect class="cls-8" x="459.49" y="190.81" width="6.11" height="5.72"/><rect class="cls-1" x="458.97" y="199.27" width="7.26" height="0.68"/><rect class="cls-7" x="471.8" y="196.53" width="6.11" height="2.88"/><rect class="cls-8" x="471.8" y="190.81" width="6.11" height="5.72"/><rect class="cls-1" x="471.28" y="199.27" width="7.26" height="0.68"/><rect class="cls-7" x="484.11" y="183.06" width="6.11" height="2.88"/><rect class="cls-5" x="484.11" y="177.35" width="6.11" height="5.72"/><rect class="cls-1" x="483.59" y="185.8" width="7.26" height="0.68"/><rect class="cls-3" x="486.12" y="144.18" width="6.23" height="3.89"/><rect class="cls-1" x="485.1" y="142.71" width="8.29" height="1.46" rx="0.36" ry="0.36"/><rect class="cls-6" x="453.04" y="148.07" width="45.74" height="4.58" rx="0.78" ry="0.78"/><path class="cls-7" d="M482.37,202.36h8.47a.58.58,0,0,1,.58.58V217.8a0,0,0,0,1,0,0h-9.63a0,0,0,0,1,0,0V202.94A.58.58,0,0,1,482.37,202.36Z"/><rect class="cls-3" x="504.95" y="185.01" width="31.23" height="32.81"/><rect class="cls-6" x="520.79" y="204.82" width="12" height="7.48"/><rect class="cls-1" x="519.8" y="212.31" width="13.73" height="0.8"/><rect class="cls-7" x="509.23" y="204.82" width="7.85" height="12.97"/><path class="cls-6" d="M539.64,193.41H501.43a.72.72,0,0,1-.65-1l8.07-17.3a.72.72,0,0,1,.65-.42h22.63a.72.72,0,0,1,.66.43l7.51,17.3A.72.72,0,0,1,539.64,193.41Z"/><polygon class="cls-3" points="534.49 182.34 530.97 177.15 530.97 173.39 534.49 173.39 534.49 182.34"/><rect class="cls-1" x="530.28" y="172.26" width="4.91" height="1.38" rx="0.27" ry="0.27"/><rect class="cls-6" x="527.42" y="196.1" width="6.11" height="5.72"/><rect class="cls-6" x="509.23" y="196.1" width="6.11" height="5.72"/><rect class="cls-6" x="518.33" y="196.1" width="6.11" height="5.72"/><rect class="cls-3" x="512.18" y="186.63" width="3.89" height="1.83"/><rect class="cls-8" x="512.18" y="182.99" width="3.89" height="3.64"/><rect class="cls-1" x="511.85" y="188.37" width="4.62" height="0.44"/><rect class="cls-3" x="525.43" y="186.63" width="3.89" height="1.83"/><rect class="cls-5" x="525.43" y="182.99" width="3.89" height="3.64"/><rect class="cls-1" x="525.11" y="188.37" width="4.62" height="0.44"/><rect class="cls-1" x="868.21" y="129.58" width="1.14" height="5.75" transform="translate(1737.56 264.91) rotate(-180)"/><rect class="cls-1" x="887.21" y="129.58" width="1.14" height="5.75" transform="translate(1775.56 264.91) rotate(-180)"/><rect class="cls-7" x="865.35" y="134.35" width="26.11" height="83.49" rx="0.8" ry="0.8"/><rect class="cls-3" x="848.96" y="166" width="31.48" height="54.11" rx="0.7" ry="0.7"/><rect class="cls-1" x="865.35" y="154.52" width="10.35" height="3.35"/><rect class="cls-1" x="881.12" y="154.52" width="10.35" height="3.35"/><rect class="cls-5" x="865.35" y="161.74" width="10.35" height="3.35"/><rect class="cls-1" x="881.12" y="161.74" width="10.35" height="3.35"/><rect class="cls-1" x="881.12" y="168.54" width="10.35" height="3.35"/><rect class="cls-6" x="855.39" y="171.9" width="2.93" height="6.63"/><rect class="cls-1" x="863.72" y="171.9" width="2.93" height="6.63"/><rect class="cls-1" x="863.72" y="182.6" width="2.93" height="6.63"/><rect class="cls-6" x="872.06" y="182.6" width="2.93" height="6.63"/><rect class="cls-1" x="855.39" y="193.57" width="2.93" height="6.63"/><rect class="cls-1" x="872.06" y="193.57" width="2.93" height="6.63"/><rect class="cls-1" x="855.39" y="193.57" width="2.93" height="6.63"/><rect class="cls-1" x="872.06" y="193.57" width="2.93" height="6.63"/><rect class="cls-7" x="865.35" y="128.2" width="26.5" height="3.31" rx="0.95" ry="0.95" transform="translate(1757.21 259.7) rotate(-180)"/><rect class="cls-1" x="881.12" y="140.37" width="10.35" height="3.35" transform="translate(1772.58 284.09) rotate(-180)"/><rect class="cls-1" x="881.12" y="147.38" width="10.35" height="3.35" transform="translate(1772.58 298.12) rotate(-180)"/><rect class="cls-1" x="865.35" y="140.37" width="10.35" height="3.35" transform="translate(1741.05 284.09) rotate(-180)"/><rect class="cls-5" x="865.35" y="147.38" width="10.35" height="3.35" transform="translate(1741.05 298.12) rotate(-180)"/><path class="cls-5" d="M642.16,266.28a5.48,5.48,0,0,1,11,0Z"/><rect class="cls-6" x="221.76" y="293.06" width="28.77" height="6.26" rx="3.13" ry="3.13"/><rect class="cls-3" x="244.99" y="294.29" width="14.39" height="3.8" rx="1.9" ry="1.9"/><path class="cls-5" d="M424.28,232.53a8.52,8.52,0,1,1,17,0Z"/><line class="cls-13" x1="108.99" y1="269.82" x2="155.12" y2="269.82"/><circle class="cls-5" cx="375.35" cy="277.24" r="2.66"/><line class="cls-13" x1="334.39" y1="279.91" x2="368.35" y2="279.91"/><path class="cls-6" d="M586.46,210.24h-3.62v-5c0-.35-.21-.64-.48-.64H565.91c-.26,0-.48.29-.48.64v5h-3.39c-.25,0-.45.27-.45.6v4.44c0,.33.2.6.45.6h24.41c.25,0,.45-.27.45-.6v-4.44C586.91,210.52,586.7,210.24,586.46,210.24Z"/><rect class="cls-1" x="560.58" y="214.93" width="27.36" height="1.24" rx="0.18" ry="0.18"/><circle class="cls-3" cx="566.85" cy="216.86" r="2.96"/><circle class="cls-3" cx="581.12" cy="216.86" r="2.96"/><rect class="cls-5" x="562.13" y="211.66" width="1.3" height="0.72" rx="0.09" ry="0.09" transform="translate(774.8 -350.76) rotate(90)"/><rect class="cls-3" x="600.08" y="194.92" width="1.06" height="24.06"/><rect class="cls-6" x="595.79" y="187.75" width="9.66" height="9.66" rx="0.45" ry="0.45"/><rect class="cls-7" x="827.56" y="161.57" width="13.78" height="4.47"/><rect class="cls-7" x="621.39" y="196.55" width="2.93" height="6.63"/><rect class="cls-1" x="630.1" y="196.26" width="3.08" height="6.96"/><rect class="cls-1" x="630.1" y="207.5" width="3.08" height="6.96"/><rect class="cls-14" x="640.68" y="196.14" width="33.68" height="23.5" rx="0.48" ry="0.48" transform="translate(1315.05 415.78) rotate(-180)"/><rect class="cls-14" x="886.71" y="196.71" width="30.55" height="21.31" rx="0.44" ry="0.44" transform="translate(1803.97 414.74) rotate(-180)"/><rect class="cls-14" x="195.57" y="181.8" width="48.54" height="36.22" rx="0.72" ry="0.72" transform="translate(439.69 399.83) rotate(-180)"/><path class="cls-7" d="M210.35,225.2H204.3c-.15,0-.27-.21-.26-.46l1.06-39.49c0-.24.12-.42.26-.42h3.93c.14,0,.25.19.26.42l1.06,39.49C210.62,225,210.5,225.2,210.35,225.2Z"/><path class="cls-1" d="M230,178.87H219.58a2.41,2.41,0,0,1,.11-4.82H225a2.71,2.71,0,0,0,1.87-2.57v-.4a2.72,2.72,0,0,0-2.71-2.71h-1.21a2.55,2.55,0,0,0-1.74-4.42H206.56a2.55,2.55,0,0,0-1.74,4.42H191.1a2.72,2.72,0,0,0-2.71,2.71v.4a2.72,2.72,0,0,0,2.71,2.71h17.45a1.85,1.85,0,0,1,1.84,1.84h0a1.85,1.85,0,0,1-1.84,1.84h-21.4a4.59,4.59,0,0,0-4.57,4.57h0a4.59,4.59,0,0,0,4.57,4.57h2.35a3.28,3.28,0,0,0,2,5.87h27.54a3.28,3.28,0,0,0,2-5.87H230a4.07,4.07,0,0,0,0-8.15Z"/><rect class="cls-1" x="223.83" y="83.45" width="11.63" height="7.04" rx="0.53" ry="0.53"/><rect class="cls-1" x="261.11" y="85.2" width="1.14" height="5.75" transform="translate(523.36 176.15) rotate(-180)"/><rect class="cls-1" x="256.14" y="85.2" width="1.14" height="5.75" transform="translate(513.42 176.15) rotate(-180)"/><path class="cls-1" d="M935.68,217.82H191.19l-.36,0H136.15a7.52,7.52,0,0,0-7.48,7,4.62,4.62,0,0,0,0,1.8,7.52,7.52,0,0,0,7.48,7h74.72c7,0,12.66,3.57,12.66,7.93s-5.52,7.8-12.33,7.92H102.77a11.86,11.86,0,0,0-11.83,11.83v1a11.86,11.86,0,0,0,11.83,11.83h142.6a5.67,5.67,0,0,0-5.65,5.65h0a5.67,5.67,0,0,0,5.65,5.65H387.22a6.13,6.13,0,0,0,0-12.25H366c-10.13-2.25-17.44-8.31-17.44-15.39,0-9,11.75-16.35,26.11-16.35H596.23c14.36,0,26.11,7.36,26.11,16.35,0,7.09-7.31,13.14-17.44,15.39H467.78a8.29,8.29,0,0,0,0,16.58H682.19a8.28,8.28,0,0,0,2.88-16.05H906.45c9.33,0,17-4.78,17-10.61h0c0-5.24-6.15-9.61-14.15-10.45H811.19c-4.14,0-7.52-2.76-7.52-6.14s3.39-6.14,7.52-6.14H927.66a27.37,27.37,0,0,0,7-.88h1a10.89,10.89,0,0,0,10.85-10.85h0A10.89,10.89,0,0,0,935.68,217.82Z"/><rect class="cls-3" x="918.97" y="236.47" width="55.13" height="15.58" rx="7.79" ry="7.79"/><line class="cls-13" x1="901.98" y1="248.59" x2="935.95" y2="248.59"/><rect class="cls-5" x="843.74" y="216.83" width="32.67" height="3.59" rx="1.79" ry="1.79"/><rect class="cls-3" x="678.43" y="187.18" width="36.27" height="32.27"/><polygon class="cls-6" points="718.46 190.83 674.99 190.83 678.99 174.81 715.06 174.81 718.46 190.83"/><rect class="cls-6" x="684.17" y="207.12" width="11.9" height="7.42"/><rect class="cls-1" x="681.68" y="213.65" width="15.13" height="0.89"/><rect class="cls-7" x="682.85" y="193.7" width="3.69" height="8.04"/><rect class="cls-6" x="688.54" y="193.7" width="3.69" height="8.04"/><rect class="cls-7" x="694.23" y="193.7" width="3.69" height="8.04"/><rect class="cls-5" x="704.42" y="193.7" width="6.06" height="8.04"/><rect class="cls-7" x="702.68" y="206.84" width="7.79" height="12.62"/><rect class="cls-3" x="707.07" y="170.95" width="4.91" height="3.86"/><rect class="cls-1" x="706.27" y="169.5" width="6.53" height="1.45" rx="0.32" ry="0.32"/><line class="cls-15" x1="678.43" y1="204.36" x2="714.71" y2="204.36"/><rect class="cls-3" x="685.58" y="183.82" width="4.29" height="2.02"/><rect class="cls-8" x="685.58" y="179.81" width="4.29" height="4.01"/><rect class="cls-1" x="685.22" y="185.74" width="5.09" height="0.48"/><rect class="cls-3" x="704.39" y="183.82" width="4.29" height="2.02"/><rect class="cls-8" x="704.39" y="179.81" width="4.29" height="4.01"/><rect class="cls-1" x="704.03" y="185.74" width="5.09" height="0.48"/><path class="cls-3" d="M751,220.85h6.69a.32.32,0,0,0,.29-.36l-1.17-30.59a.32.32,0,0,0-.29-.33h-4.34a.32.32,0,0,0-.29.33l-1.17,30.59A.32.32,0,0,0,751,220.85Z"/><path class="cls-1" d="M770.55,186.38v0H762.4a1,1,0,1,1,0-1.95v0h4.43a3.82,3.82,0,0,0,3.81-3.81v0a3.82,3.82,0,0,0-3.81-3.81h-.64a2.45,2.45,0,0,0,.39-1.33,2.48,2.48,0,0,0-2.47-2.47h-19a2.48,2.48,0,0,0-2.47,2.47,2.45,2.45,0,0,0,.39,1.33h-5.25a1.56,1.56,0,1,0,0,3.12h6.81a2.28,2.28,0,0,1,0,4.57h-7.79a3.93,3.93,0,0,0-3.92,3.92v.58a3.93,3.93,0,0,0,3.92,3.92h33.4a3.23,3.23,0,0,0,.3-6.44Z"/><path class="cls-5" d="M752.08,223.54a7.46,7.46,0,0,1,14.92,0Z"/><circle class="cls-5" cx="619.39" cy="264.35" r="3.97"/><rect class="cls-3" x="601.19" y="247.59" width="22.13" height="7.18" rx="3.59" ry="3.59"/><path class="cls-11" d="M481.79,217.8S476.45,226,495,228.18s16.88,12.2,7.73,13.34h13.37s5.7-13.59-13.16-16c-17.59-2.23-11.48-7.73-11.48-7.73"/><path class="cls-5" d="M513.48,241.52a5.48,5.48,0,0,1,11,0Z"/><path class="cls-5" d="M517.86,218.43H517V215.7a.42.42,0,0,1,.42-.42h.06a1.32,1.32,0,0,1,1.18-1v-.48a.72.72,0,0,1,.72-.72h0a.72.72,0,0,1,.72.72v.9a1,1,0,0,1,1.53,1.16,2.64,2.64,0,0,1,2.22,2.61h-5.28"/><path class="cls-4" d="M515.74,219.28a1.75,1.75,0,1,1,3.51,0Z"/><path class="cls-5" d="M508.44,218h.84v-2.73a.42.42,0,0,0-.42-.42h-.06a1.32,1.32,0,0,0-1.18-1v-.48a.72.72,0,0,0-.72-.72h0a.72.72,0,0,0-.72.72v.9a1,1,0,0,0-1.53,1.16,2.64,2.64,0,0,0-2.22,2.61h5.28"/><path class="cls-4" d="M506.46,218.85a1.75,1.75,0,0,1,3.51,0Z"/><path class="cls-8" d="M415.64,219.41h-5.25c-.13,0-.23-.22-.23-.49l.92-41.72c0-.25.11-.45.23-.45h3.41c.12,0,.22.2.23.45l.92,41.72C415.87,219.18,415.77,219.41,415.64,219.41Z"/><path class="cls-11" d="M431.56,186.39H423.9a3.57,3.57,0,0,0-.46-5.95h4.73a2.79,2.79,0,0,0,2.78-2.78v-.42a2.79,2.79,0,0,0-2.78-2.78H407.79a3.21,3.21,0,0,0-3.2,3.2A2.78,2.78,0,0,0,405.8,180h-3.91a3.6,3.6,0,0,0-2.28,6.39H395a1.51,1.51,0,0,0-1.5,1.5v.29a1.51,1.51,0,0,0,1.5,1.5h11a3.52,3.52,0,0,0,0,.37,3.63,3.63,0,0,0,3.62,3.62h22.05a3.62,3.62,0,0,0,0-7.23Z"/><rect class="cls-6" x="289.58" y="213.19" width="3.59" height="8.94" rx="0.64" ry="0.64"/><rect class="cls-6" x="330.79" y="212.84" width="3.59" height="8.94" rx="0.64" ry="0.64"/><rect class="cls-6" x="293.16" y="199.17" width="2.63" height="14.01"/><rect class="cls-6" x="328.51" y="199.17" width="2.63" height="14.01"/><rect class="cls-16" x="284.18" y="194.23" width="56.56" height="11.64" rx="0.89" ry="0.89"/><rect class="cls-16" x="284.18" y="210.64" width="56.56" height="3.28" rx="0.47" ry="0.47"/><rect class="cls-7" x="287.27" y="196.49" width="2.29" height="0.48" rx="0.24" ry="0.24"/><rect class="cls-7" x="334.96" y="196.49" width="2.29" height="0.48" rx="0.24" ry="0.24"/><rect class="cls-5" x="268.3" y="215.86" width="37.94" height="3.38" rx="1.69" ry="1.69"/><path class="cls-5" d="M347.66,174.58a3.65,3.65,0,0,1-7.3,0Z"/><path class="cls-6" d="M355.94,182.58h-.88v-9.49h0V173a.14.14,0,0,0-.14-.14H339.29a.14.14,0,0,0-.14.14v1.47a.14.14,0,0,0,.14.14h13.53V218.1a.26.26,0,0,0,.26.26h1.73a.26.26,0,0,0,.26-.26V186.89h.88Z"/><rect class="cls-6" x="351.07" y="193.44" width="1.75" height="4.3"/><path class="cls-5" d="M165.38,221.42a8.52,8.52,0,0,1,17,0Z"/><rect class="cls-3" x="349.57" y="269.4" width="28.46" height="7.18" rx="3.59" ry="3.59"/><path class="cls-5" d="M773.13,237.48a5.48,5.48,0,1,1,11,0Z"/><path class="cls-5" d="M823.49,269.83a5.48,5.48,0,0,1,11,0Z"/><circle class="cls-5" cx="775.95" cy="253.84" r="2.66"/><line class="cls-13" x1="734.98" y1="256.51" x2="768.95" y2="256.51"/><circle class="cls-5" cx="289.58" cy="248.59" r="4.04"/><line class="cls-13" x1="317.29" y1="256.51" x2="363.42" y2="256.51"/><rect class="cls-6" x="443.58" y="282.99" width="37.93" height="10.14" rx="5.07" ry="5.07"/><rect class="cls-6" x="670.29" y="286.8" width="57.54" height="15.38" rx="7.69" ry="7.69"/><rect class="cls-3" x="716.76" y="289.82" width="28.77" height="9.33" rx="4.67" ry="4.67"/><rect class="cls-6" x="62.17" y="265.3" width="57.54" height="15.38" rx="7.69" ry="7.69"/><rect class="cls-3" x="113.21" y="288.4" width="28.77" height="9.33" rx="4.67" ry="4.67"/><circle class="cls-5" cx="138.7" cy="288.05" r="4.04"/><path class="cls-5" d="M731,180.2a3.19,3.19,0,0,0,6.39,0Z"/><path class="cls-6" d="M723.8,187.21h.77v-8.3h0v-.11a.12.12,0,0,1,.12-.12h13.69a.12.12,0,0,1,.12.12v1.29a.12.12,0,0,1-.12.12H726.53v38.08a.23.23,0,0,1-.23.23h-1.51a.23.23,0,0,1-.23-.23V191h-.77Z"/><rect class="cls-6" x="726.53" y="196.71" width="1.53" height="3.77"/><path class="cls-17" d="M753.16,375.79h0a9.22,9.22,0,0,1,9.2-9.2h25.87a9.22,9.22,0,0,1,9.2,9.2H753.16Z"/><circle class="cls-5" cx="757.96" cy="366.59" r="4.04"/><path class="cls-18" d="M311.11,346.79h0a9.22,9.22,0,0,1,9.2-9.2h25.87a9.22,9.22,0,0,1,9.2,9.2H311.11Z"/><circle class="cls-5" cx="235.48" cy="341.63" r="4.04"/><circle class="cls-19" cx="918.92" cy="371.19" r="4.62"/><line class="cls-13" x1="108.95" y1="47.51" x2="108.95" y2="50.35"/><line class="cls-13" x1="108.95" y1="52.51" x2="108.95" y2="55.35"/><line class="cls-13" x1="110.37" y1="51.46" x2="113.21" y2="51.46"/><line class="cls-13" x1="104.77" y1="51.46" x2="107.61" y2="51.46"/><circle class="cls-5" cx="67.76" cy="32.29" r="3.66"/><line class="cls-20" x1="958.12" y1="60.09" x2="958.12" y2="62.93"/><line class="cls-20" x1="958.12" y1="65.09" x2="958.12" y2="67.93"/><line class="cls-20" x1="959.54" y1="64.05" x2="962.38" y2="64.05"/><line class="cls-20" x1="953.94" y1="64.05" x2="956.78" y2="64.05"/><line class="cls-13" x1="493.21" y1="84.36" x2="493.21" y2="87.2"/><line class="cls-13" x1="493.21" y1="89.36" x2="493.21" y2="92.2"/><line class="cls-13" x1="494.63" y1="88.32" x2="497.47" y2="88.32"/><line class="cls-13" x1="489.04" y1="88.32" x2="491.88" y2="88.32"/><line class="cls-20" x1="609.21" y1="42.36" x2="609.21" y2="45.2"/><line class="cls-20" x1="609.21" y1="47.36" x2="609.21" y2="50.2"/><line class="cls-20" x1="610.63" y1="46.32" x2="613.47" y2="46.32"/><line class="cls-20" x1="605.04" y1="46.32" x2="607.88" y2="46.32"/></g></svg>