<?xml version="1.0" encoding="utf-8"?>
<!-- Generator: Adobe Illustrator 21.1.0, SVG Export Plug-In . SVG Version: 6.00 Build 0)  -->
<svg version="1.1" id="Layer_1" xmlns="http://www.w3.org/2000/svg" xmlns:xlink="http://www.w3.org/1999/xlink" x="0px" y="0px"
	 viewBox="0 0 612 396" style="enable-background:new 0 0 612 396;" xml:space="preserve">
<style type="text/css">
	.st0{fill:#F4AD0F;}
	.st1{fill:#FFCC33;}
	.st2{fill:#774BAF;}
	.st3{fill:url(#SVGID_1_);}
	.st4{fill:#A081C7;}
	.st5{fill:#AD93CF;}
	.st6{fill:#E4DBEF;}
	.st7{fill:#C9B7DF;}
	.st8{fill:url(#SVGID_2_);}
	.st9{fill:url(#SVGID_3_);}
	.st10{fill:url(#SVGID_4_);}
	.st11{fill:none;stroke:#FFCC33;stroke-width:0.75;stroke-linecap:round;stroke-miterlimit:10;}
	.st12{fill:none;stroke:#FFCC33;stroke-width:0.7003;stroke-linecap:round;stroke-miterlimit:10;}
	.st13{fill:none;stroke:#774BAF;stroke-width:0.7003;stroke-linecap:round;stroke-miterlimit:10;}
	.st14{fill:none;stroke:#774BAF;stroke-width:0.75;stroke-linecap:round;stroke-miterlimit:10;}
	.st15{fill:#FFFFFF;}
</style>
<title>logo</title>
<path class="st0" d="M306.9,285.9h3.4c0.1,0,0.1,0,0.2,0.1c1.2,3.1,0.6,6.5-1.6,9c-0.2,0.2-0.5,0.2-0.7,0l0,0c-2.2-2.5-2.7-6-1.4-9
	C306.7,285.9,306.8,285.9,306.9,285.9z"/>
<path class="st1" d="M307.4,285.9h2.3c0.1,0,0.1,0,0.2,0.1c0.8,2.1,0.4,4.5-1.1,6.2c-0.1,0.2-0.4,0.2-0.5,0.1c0,0,0,0-0.1-0.1
	c-1.5-1.7-1.8-4.1-1-6.2C307.3,285.9,307.3,285.9,307.4,285.9z"/>
<path class="st0" d="M289.4,285.6h3.4c0.1,0,0.1,0,0.2,0.1c1.2,3.1,0.6,6.5-1.6,9c-0.2,0.2-0.5,0.2-0.7,0l0,0c-2.2-2.5-2.7-6-1.4-9
	C289.2,285.7,289.3,285.6,289.4,285.6z"/>
<path class="st1" d="M289.9,285.7h2.3c0.1,0,0.1,0,0.2,0.1c0.8,2.1,0.4,4.5-1.1,6.2c-0.1,0.2-0.4,0.2-0.5,0.1c0,0,0,0-0.1-0.1
	c-1.5-1.7-1.8-4.1-1-6.2C289.8,285.7,289.8,285.7,289.9,285.7z"/>
<path class="st0" d="M296.5,285.6h6.8c0.2,0,0.3,0.1,0.4,0.2c2.5,6.2,1.3,13.4-3.2,18.4c-0.4,0.4-1,0.5-1.4,0.1l-0.1-0.1
	c-4.4-5.1-5.5-12.3-2.9-18.4C296.2,285.7,296.4,285.6,296.5,285.6z"/>
<path class="st1" d="M297.6,285.7h4.6c0.2,0,0.3,0.1,0.4,0.2c1.7,4.3,0.9,9.2-2.2,12.7c-0.3,0.3-0.8,0.4-1.1,0.1l-0.1-0.1
	c-3-3.5-3.8-8.5-1.9-12.7C297.3,285.8,297.4,285.7,297.6,285.7z"/>
<rect x="111.9" y="228" class="st2" width="1.1" height="5.8"/>
<rect x="121.1" y="228" class="st2" width="1.1" height="5.8"/>
<rect x="474.8" y="227.4" class="st2" width="1.1" height="5.8"/>
<rect x="494.5" y="227.4" class="st2" width="1.1" height="5.8"/>
<path class="st0" d="M232.2,320.9h5.4v-17.5c0-1.5-1.2-2.7-2.7-2.7c-0.1,0-0.2,0-0.4,0c-0.8-3.6-3.9-6.3-7.6-6.6v-3
	c0-2.5-2.1-4.6-4.6-4.6l0,0c-2.5,0-4.6,2.1-4.6,4.6v5.8c-3-2-7-1.2-9,1.8c-1.1,1.7-1.4,3.7-0.8,5.6c-8.2,1.3-14.2,8.4-14.2,16.7
	h33.9"/>
<path class="st2" d="M481.8,290.1c-0.1,0-0.3,0-0.4,0c-1-4.2-4.5-7.4-8.9-7.8v-3.6c0-3-2.4-5.4-5.4-5.4l0,0c-2.1,0-4,1.2-4.9,3.1
	v-2.2c0-2-1.6-3.5-3.5-3.5c-0.2,0-0.3,0-0.5,0c-1.1-4.7-5.1-8.3-9.9-8.7v-4c0-3.3-2.7-6-6-6l0,0c-3.3,0-6,2.7-6,6v7.6
	c-3.9-2.6-9.2-1.6-11.8,2.3c-1.5,2.2-1.8,4.9-1,7.4c-10.8,1.7-18.7,11-18.7,21.9h37.8c-5.7,3.6-9.1,9.9-9.1,16.7h39.8l5.4-0.1h6.3
	v-20.5C485,291.5,483.6,290.1,481.8,290.1L481.8,290.1z"/>
<path class="st2" d="M559.4,329.9L559.4,329.9c-7.2,0-13.1-5.9-13.1-13.1v-53c0-7.2,5.9-13.1,13.1-13.1l0,0
	c7.2,0,13.1,5.9,13.1,13.1v53C572.5,324.1,566.6,329.9,559.4,329.9z"/>
<linearGradient id="SVGID_1_" gradientUnits="userSpaceOnUse" x1="513.36" y1="550.1" x2="513.36" y2="490.12" gradientTransform="matrix(-1 0 0 1 1085.86 -214)">
	<stop  offset="0" style="stop-color:#FFFFFF"/>
	<stop  offset="1.000000e-02" style="stop-color:#F9F7FB"/>
	<stop  offset="7.000000e-02" style="stop-color:#E1D8ED"/>
	<stop  offset="0.14" style="stop-color:#CDBCE1"/>
	<stop  offset="0.22" style="stop-color:#BCA6D8"/>
	<stop  offset="0.31" style="stop-color:#AF95D0"/>
	<stop  offset="0.42" style="stop-color:#A78ACB"/>
	<stop  offset="0.57" style="stop-color:#A183C8"/>
	<stop  offset="1" style="stop-color:#A081C7"/>
</linearGradient>
<path class="st3" d="M581.3,336.1V287c0-6-4-10.8-8.8-10.8l0,0c-4.8,0-8.8,4.9-8.8,10.8v49.1H581.3z"/>
<path class="st4" d="M524.9,321.6h-24.8c-0.4,0-0.6-0.3-0.6-0.6v-52.6c0-0.4,0.3-0.6,0.6-0.6h24.8c0.4,0,0.6,0.3,0.6,0.6V321
	C525.5,321.3,525.2,321.6,524.9,321.6z"/>
<path class="st4" d="M446.9,321.6H422c-0.4,0-0.6-0.3-0.6-0.6v-52.6c0-0.4,0.3-0.6,0.6-0.6h24.8c0.4,0,0.6,0.3,0.6,0.6V321
	C447.5,321.3,447.2,321.6,446.9,321.6z"/>
<path class="st5" d="M497.7,315.6h-24.5c-0.4,0-0.8-0.4-0.8-0.8v-81.9c0-0.4,0.4-0.8,0.8-0.8h24.5c0.4,0,0.8,0.4,0.8,0.8v81.9
	C498.5,315.3,498.2,315.6,497.7,315.6z"/>
<path class="st6" d="M478.1,321h-33.2c-0.3,0-0.5-0.2-0.5-0.5v-22.9c0-0.3,0.2-0.5,0.5-0.5h33.2c0.3,0,0.5,0.2,0.5,0.5v22.9
	C478.6,320.8,478.4,321,478.1,321z"/>
<path class="st5" d="M558.6,317.9h-27.7c-0.3,0-0.5-0.2-0.5-0.5v-31.6c0-0.3,0.2-0.5,0.5-0.5h27.7c0.3,0,0.5,0.2,0.5,0.5v31.6
	C559.1,317.7,558.9,317.9,558.6,317.9z"/>
<path class="st6" d="M551.3,318h-30.5c-0.3,0-0.5-0.2-0.5-0.5v-22.9c0-0.3,0.2-0.5,0.5-0.5h30.5c0.3,0,0.5,0.2,0.5,0.5v22.9
	C551.8,317.8,551.6,318,551.3,318z"/>
<path class="st7" d="M514.2,317.9h-30.1c-0.4,0-0.7-0.3-0.7-0.7v-52.7c0-0.4,0.3-0.7,0.7-0.7h30.1c0.4,0,0.7,0.3,0.7,0.7v52.7
	C514.9,317.6,514.6,317.9,514.2,317.9z"/>
<rect x="488.2" y="252.3" class="st2" width="10.4" height="3.4"/>
<rect x="472.4" y="252.3" class="st2" width="10.4" height="3.4"/>
<rect x="488.2" y="259.5" class="st1" width="10.4" height="3.4"/>
<rect x="472.4" y="259.5" class="st2" width="10.4" height="3.4"/>
<rect x="472.4" y="266.3" class="st2" width="10.4" height="3.4"/>
<rect x="435.4" y="273" class="st6" width="8" height="3.4"/>
<rect x="424.7" y="273" class="st6" width="8" height="3.4"/>
<rect x="435.4" y="278.7" class="st1" width="8" height="3.4"/>
<rect x="424.7" y="278.7" class="st6" width="8" height="3.4"/>
<rect x="435.4" y="284.5" class="st6" width="8" height="3.4"/>
<rect x="424.7" y="290.5" class="st6" width="8" height="3.4"/>
<rect x="435.4" y="296.2" class="st1" width="8" height="3.4"/>
<rect x="424.7" y="296.2" class="st6" width="8" height="3.4"/>
<rect x="435.4" y="302" class="st6" width="8" height="3.4"/>
<path class="st1" d="M546.3,263.8c-0.1-7.2,5.6-13.1,12.8-13.3s13.1,5.6,13.3,12.8c0,0.2,0.1,0.4,0.1,0.6v4.8c0,1.5-1.2,2.7-2.7,2.7
	s-2.7-1.2-2.7-2.7v-2.3c0-1.5-1.2-2.7-2.7-2.7s-2.7,1.2-2.7,2.7l0,0v10.7c0,1.5-1.2,2.7-2.7,2.7l0,0c-1.5,0-2.7-1.2-2.7-2.7v-0.7
	l0,0v-0.1v-4.1c0-1.5-1.2-2.7-2.7-2.7s-2.7,1.2-2.7,2.7l0,0v1.5l0,0v0.1c0,1.3-1,2.3-2.3,2.3s-2.3-1-2.3-2.3l0,0V264c0,0,0,0,0-0.1
	S546.3,263.8,546.3,263.8z"/>
<path class="st0" d="M563.7,285.1c-0.1-4.8,3.8-8.8,8.6-8.9s8.8,3.8,8.9,8.6l0,0c0,0.1,0,0.3,0,0.4v3.2c0,1-0.8,1.8-1.8,1.8
	s-1.8-0.8-1.8-1.8v-1.5c0-1-0.8-1.8-1.8-1.8s-1.8,0.8-1.8,1.8l0,0v7.2c0,1-0.8,1.8-1.8,1.8l0,0c-1,0-1.8-0.8-1.8-1.8v-0.5l0,0
	c0,0,0,0,0-0.1v-2.8c0-1-0.8-1.8-1.8-1.8s-1.8,0.8-1.8,1.8l0,0v1l0,0l0,0c-0.1,0.9-0.8,1.5-1.7,1.4c-0.8-0.1-1.4-0.7-1.4-1.4
	L563.7,285.1C563.7,285.2,563.7,285.2,563.7,285.1L563.7,285.1z"/>
<path class="st7" d="M429.5,317.9h-30.3c-0.3,0-0.6-0.3-0.6-0.6v-33.7c0-0.3,0.3-0.6,0.6-0.6h30.3c0.3,0,0.6,0.3,0.6,0.6v33.7
	C430.1,317.6,429.8,317.9,429.5,317.9z"/>
<rect x="505.6" y="269.7" class="st4" width="2.9" height="6.6"/>
<rect x="497.2" y="269.7" class="st2" width="2.9" height="6.6"/>
<rect x="497.2" y="280.4" class="st2" width="2.9" height="6.6"/>
<rect x="488.9" y="280.4" class="st4" width="2.9" height="6.6"/>
<rect x="505.6" y="291.4" class="st2" width="2.9" height="6.6"/>
<rect x="488.9" y="291.4" class="st2" width="2.9" height="6.6"/>
<rect x="505.6" y="291.4" class="st2" width="2.9" height="6.6"/>
<rect x="488.9" y="291.4" class="st2" width="2.9" height="6.6"/>
<path class="st0" d="M371.9,320.9h-5.4v-17.5c0-1.5,1.2-2.7,2.7-2.7c0.1,0,0.2,0,0.4,0c0.8-3.6,3.9-6.3,7.5-6.6v-3
	c0-2.5,2.1-4.6,4.6-4.6l0,0c2.5,0,4.6,2.1,4.6,4.6v5.8c3-2,7-1.2,9,1.8c1.1,1.7,1.4,3.7,0.8,5.6c8.2,1.3,14.2,8.4,14.2,16.7h-33.9"
	/>
<path class="st2" d="M164,313.9h6.3v-20.6c0-1.7-1.4-3.2-3.2-3.2c-0.1,0-0.3,0-0.4,0c-1-4.2-4.5-7.4-8.9-7.8v-3.6
	c0-3-2.4-5.4-5.4-5.4l0,0c-3,0-5.4,2.4-5.4,5.4v6.8c-3.5-2.4-8.2-1.4-10.6,2.1c-1.3,2-1.7,4.4-0.9,6.7c-9.6,1.5-16.7,9.9-16.7,19.6
	h39.8"/>
<path class="st2" d="M48.6,250.8L48.6,250.8c7.2,0,13.1,5.9,13.1,13.1v53c0,7.2-5.9,13.1-13.1,13.1l0,0c-7.2,0-13.1-5.9-13.1-13.1
	v-53C35.5,256.6,41.4,250.8,48.6,250.8z"/>
<linearGradient id="SVGID_2_" gradientUnits="userSpaceOnUse" x1="35.5" y1="550.1" x2="35.5" y2="490.12" gradientTransform="matrix(1 0 0 1 0 -214)">
	<stop  offset="0" style="stop-color:#FFFFFF"/>
	<stop  offset="1.000000e-02" style="stop-color:#F9F7FB"/>
	<stop  offset="7.000000e-02" style="stop-color:#E1D8ED"/>
	<stop  offset="0.14" style="stop-color:#CDBCE1"/>
	<stop  offset="0.22" style="stop-color:#BCA6D8"/>
	<stop  offset="0.31" style="stop-color:#AF95D0"/>
	<stop  offset="0.42" style="stop-color:#A78ACB"/>
	<stop  offset="0.57" style="stop-color:#A183C8"/>
	<stop  offset="1" style="stop-color:#A081C7"/>
</linearGradient>
<path class="st8" d="M26.7,336.1V287c0-6,4-10.8,8.8-10.8l0,0c4.8,0,8.8,4.9,8.8,10.8v49.1H26.7z"/>
<path class="st2" d="M83.1,267.7h24.8c0.4,0,0.6,0.3,0.6,0.6V321c0,0.4-0.3,0.6-0.6,0.6H83.1c-0.4,0-0.6-0.3-0.6-0.6v-52.6
	C82.5,268,82.7,267.7,83.1,267.7z"/>
<path class="st4" d="M161.1,267.7h24.8c0.4,0,0.6,0.3,0.6,0.6V321c0,0.4-0.3,0.6-0.6,0.6h-24.8c-0.4,0-0.6-0.3-0.6-0.6v-52.6
	C160.5,268,160.8,267.7,161.1,267.7z"/>
<path class="st5" d="M110.3,232.1h24.5c0.4,0,0.8,0.4,0.8,0.8v81.9c0,0.4-0.4,0.8-0.8,0.8h-24.5c-0.4,0-0.8-0.4-0.8-0.8v-81.9
	C109.5,232.5,109.8,232.1,110.3,232.1z"/>
<path class="st6" d="M129.9,297.2h33.2c0.3,0,0.5,0.2,0.5,0.5v22.9c0,0.3-0.2,0.5-0.5,0.5h-33.2c-0.3,0-0.5-0.2-0.5-0.5v-22.9
	C129.4,297.4,129.6,297.2,129.9,297.2z"/>
<path class="st2" d="M561,317.9H46.2c-5.4,0-9.8,4.4-9.8,9.8l0,0c0,5.4,4.4,9.8,9.8,9.8h55.2c6.1,0,11.1,4.5,11.1,10l0,0
	c0,5.5-5,10-11.1,10H65.5c-3.6,0-6.6,3-6.6,6.6s3,6.6,6.6,6.6h247.8c3.6,0,6.6-3,6.6-6.6s-3-6.6-6.6-6.6h-71.5
	c-5.7,0-10.4-4.2-10.4-9.3v-1.4c0-5.1,4.7-9.3,10.4-9.3h109.5c4.4,1.7,6.5,6.7,4.8,11c-0.9,2.2-2.6,3.9-4.8,4.8H342
	c-2.9-0.1-5.3,2.1-5.4,5s2.1,5.3,5,5.4c0.2,0,0.3,0,0.5,0h155.3c2.9-0.1,5.1-2.6,5-5.4c-0.1-2.7-2.3-4.9-5-5h-41.8
	c-4.4-1.7-6.5-6.7-4.8-11c0.9-2.2,2.6-3.9,4.8-4.8H561c5.4,0,9.8-4.4,9.8-9.8l0,0C570.8,322.3,566.4,317.9,561,317.9z"/>
<path class="st4" d="M121.6,379.2H154c3.3,0,5.9,2.6,5.9,5.9l0,0c0,3.3-2.6,5.9-5.9,5.9h-32.4c-3.3,0-5.9-2.6-5.9-5.9l0,0
	C115.7,381.9,118.3,379.2,121.6,379.2z"/>
<path class="st7" d="M155,381.5h15c2,0,3.6,1.6,3.6,3.6l0,0c0,2-1.6,3.6-3.6,3.6h-15c-2,0-3.6-1.6-3.6-3.6l0,0
	C151.4,383.1,153,381.5,155,381.5z"/>
<path class="st4" d="M88.8,367.7h21.3c2,0,3.6,1.6,3.6,3.6l0,0c0,2-1.6,3.6-3.6,3.6H88.8c-2,0-3.6-1.6-3.6-3.6l0,0
	C85.2,369.3,86.8,367.7,88.8,367.7z"/>
<path class="st4" d="M362.2,358.9h32.4c3.3,0,5.9,2.6,5.9,5.9l0,0c0,3.3-2.6,5.9-5.9,5.9h-32.4c-3.3,0-5.9-2.6-5.9-5.9l0,0
	C356.3,361.5,359,358.9,362.2,358.9z"/>
<path class="st7" d="M391,367.1h15c2,0,3.6,1.6,3.6,3.6l0,0c0,2-1.6,3.6-3.6,3.6h-15c-2,0-3.6-1.6-3.6-3.6l0,0
	C387.4,368.7,389,367.1,391,367.1z"/>
<linearGradient id="SVGID_3_" gradientUnits="userSpaceOnUse" x1="437.05" y1="610" x2="437.05" y2="600.8" gradientTransform="matrix(1 0 0 1 0 -214)">
	<stop  offset="0" style="stop-color:#FFFFFF"/>
	<stop  offset="1.000000e-02" style="stop-color:#F9F7FB"/>
	<stop  offset="7.000000e-02" style="stop-color:#E1D8ED"/>
	<stop  offset="0.14" style="stop-color:#CDBCE1"/>
	<stop  offset="0.22" style="stop-color:#BCA6D8"/>
	<stop  offset="0.31" style="stop-color:#AF95D0"/>
	<stop  offset="0.42" style="stop-color:#A78ACB"/>
	<stop  offset="0.57" style="stop-color:#A183C8"/>
	<stop  offset="1" style="stop-color:#A081C7"/>
</linearGradient>
<path class="st9" d="M414.9,396L414.9,396c0-5.1,4.1-9.2,9.2-9.2H450c5.1,0,9.2,4.1,9.2,9.2H414.9z"/>
<path class="st7" d="M225.1,340.7h21.3c2,0,3.6,1.6,3.6,3.6l0,0c0,2-1.6,3.6-3.6,3.6h-21.3c-2,0-3.6-1.6-3.6-3.6l0,0
	C221.6,342.3,223.2,340.7,225.1,340.7z"/>
<path class="st4" d="M300.7,367.1H322c2,0,3.6,1.6,3.6,3.6l0,0c0,2-1.6,3.6-3.6,3.6h-21.3c-2,0-3.6-1.6-3.6-3.6l0,0
	C297.1,368.7,298.7,367.1,300.7,367.1z"/>
<path class="st7" d="M447.1,344.3h15c2,0,3.6,1.6,3.6,3.6l0,0c0,2-1.6,3.6-3.6,3.6h-15c-2,0-3.6-1.6-3.6-3.6l0,0
	C443.5,345.9,445.1,344.3,447.1,344.3z"/>
<path class="st1" d="M153.9,340.7c0.3-4.7,4.4-8.2,9.1-7.9c4.2,0.3,7.6,3.7,7.9,7.9H153.9z"/>
<circle class="st1" cx="247.3" cy="348.5" r="2.7"/>
<circle class="st1" cx="419.7" cy="386.8" r="4"/>
<path class="st1" d="M474.5,319.4c0-4.1,3.3-7.5,7.5-7.5c4.1,0,7.5,3.3,7.5,7.5l0,0H474.5z"/>
<path class="st1" d="M174.7,335.5c-0.1-3.1,2.3-5.7,5.4-5.9c3.1-0.1,5.7,2.3,5.9,5.4c0,0.2,0,0.3,0,0.5H174.7z"/>
<linearGradient id="SVGID_4_" gradientUnits="userSpaceOnUse" x1="580.7" y1="610.02" x2="580.7" y2="600.78" gradientTransform="matrix(1 0 0 1 0 -214)">
	<stop  offset="0" style="stop-color:#FFFFFF"/>
	<stop  offset="9.000000e-02" style="stop-color:#FFF7E1"/>
	<stop  offset="0.26" style="stop-color:#FFEAAC"/>
	<stop  offset="0.43" style="stop-color:#FFDF81"/>
	<stop  offset="0.59" style="stop-color:#FFD75F"/>
	<stop  offset="0.74" style="stop-color:#FFD147"/>
	<stop  offset="0.88" style="stop-color:#FFCD38"/>
	<stop  offset="1" style="stop-color:#FFCC33"/>
</linearGradient>
<circle class="st10" cx="580.7" cy="391.4" r="4.6"/>
<path class="st1" d="M493.2,320.6c0-3,2.5-5.5,5.5-5.5s5.5,2.5,5.5,5.5H493.2z"/>
<path class="st1" d="M532.2,331.6c0-3,2.5-5.5,5.5-5.5s5.5,2.5,5.5,5.5H532.2z"/>
<circle class="st1" cx="70.1" cy="356.8" r="4"/>
<path class="st7" d="M527.7,358.9h40.6c3.3,0,5.9,2.6,5.9,5.9l0,0c0,3.3-2.6,5.9-5.9,5.9h-40.6c-3.3,0-5.9-2.6-5.9-5.9l0,0
	C521.8,361.5,524.5,358.9,527.7,358.9z"/>
<path class="st5" d="M49.4,285.3h27.8c0.3,0,0.5,0.2,0.5,0.5v31.6c0,0.3-0.2,0.5-0.5,0.5H49.4c-0.3,0-0.5-0.2-0.5-0.5v-31.6
	C48.8,285.5,49.1,285.3,49.4,285.3z"/>
<path class="st6" d="M56.7,294.2h30.5c0.3,0,0.5,0.2,0.5,0.5v22.9c0,0.3-0.2,0.5-0.5,0.5H56.7c-0.3,0-0.5-0.2-0.5-0.5v-22.9
	C56.2,294.4,56.4,294.2,56.7,294.2z"/>
<path class="st7" d="M93.8,263.8h30.1c0.4,0,0.7,0.3,0.7,0.7V315c0,0.4-0.3,0.7-0.7,0.7H93.8c-0.4,0-0.7-0.3-0.7-0.7v-50.5
	C93.1,264.1,93.4,263.8,93.8,263.8z"/>
<path class="st1" d="M71,315.6h74.8c2,0,3.6,1.6,3.6,3.6l0,0c0,2-1.6,3.6-3.6,3.6H71c-2,0-3.6-1.6-3.6-3.6l0,0
	C67.5,317.2,69.1,315.6,71,315.6z"/>
<path class="st5" d="M110.2,226h13.6c0.4,0,0.7,0.3,0.7,0.7v1.9c0,0.4-0.3,0.7-0.7,0.7h-13.6c-0.4,0-0.7-0.3-0.7-0.7v-1.9
	C109.5,226.3,109.8,226,110.2,226z"/>
<path class="st5" d="M473,226h24.6c0.5,0,1,0.4,1,0.9v1.4c0,0.5-0.4,0.9-1,0.9H473c-0.5,0-1-0.4-1-0.9v-1.4
	C472,226.4,472.4,226,473,226z"/>
<line class="st11" x1="206.4" y1="351.2" x2="240.3" y2="351.2"/>
<line class="st11" x1="87.7" y1="354.4" x2="133.8" y2="354.4"/>
<rect x="109.5" y="238.4" class="st2" width="10.3" height="3.4"/>
<rect x="109.5" y="245.4" class="st2" width="10.3" height="3.4"/>
<rect x="109.5" y="252.3" class="st2" width="10.3" height="3.4"/>
<rect x="125.2" y="238.4" class="st2" width="10.3" height="3.4"/>
<rect x="125.2" y="245.4" class="st1" width="10.3" height="3.4"/>
<rect x="125.2" y="252.3" class="st2" width="10.3" height="3.4"/>
<rect x="109.5" y="259.5" class="st1" width="10.3" height="3.4"/>
<rect x="125.2" y="259.5" class="st2" width="10.3" height="3.4"/>
<rect x="125.2" y="266.3" class="st2" width="10.3" height="3.4"/>
<rect x="164.6" y="273" class="st6" width="8" height="3.4"/>
<rect x="175.3" y="273" class="st6" width="8" height="3.4"/>
<rect x="164.6" y="278.7" class="st1" width="8" height="3.4"/>
<rect x="175.3" y="278.7" class="st6" width="8" height="3.4"/>
<rect x="164.6" y="284.5" class="st6" width="8" height="3.4"/>
<rect x="175.3" y="290.5" class="st6" width="8" height="3.4"/>
<rect x="164.6" y="296.2" class="st1" width="8" height="3.4"/>
<rect x="175.3" y="296.2" class="st6" width="8" height="3.4"/>
<rect x="164.6" y="302" class="st6" width="8" height="3.4"/>
<path class="st1" d="M61.6,263.8c0.1-7.2-5.6-13.1-12.8-13.3c-7.2-0.1-13.1,5.6-13.3,12.8c0,0.2-0.1,0.4-0.1,0.6v4.8
	c0,1.5,1.2,2.7,2.7,2.7s2.7-1.2,2.7-2.7v-2.3c0-1.5,1.2-2.7,2.7-2.7s2.7,1.2,2.7,2.7l0,0v10.7c0,1.5,1.2,2.7,2.7,2.7l0,0
	c1.5,0,2.7-1.2,2.7-2.7v-0.7l0,0v-0.1v-4.1c0-1.5,1.2-2.7,2.7-2.7s2.7,1.2,2.7,2.7v1.5l0,0v0.1c0,1.3,1,2.3,2.3,2.3s2.3-1,2.3-2.3
	V264c0,0,0,0,0-0.1S61.6,263.8,61.6,263.8z"/>
<path class="st0" d="M44.3,285.1c0.1-4.8-3.8-8.8-8.6-8.9s-8.8,3.8-8.9,8.6l0,0c0,0.1,0,0.3,0,0.4v3.2c0,1,0.8,1.8,1.8,1.8
	s1.8-0.8,1.8-1.8v-1.5c0-1,0.8-1.8,1.8-1.8c1,0,1.8,0.8,1.8,1.8v7.2c0,1,0.8,1.8,1.8,1.8l0,0c1,0,1.8-0.8,1.8-1.8v-0.5l0,0
	c0,0,0,0,0-0.1v-2.8c0-1,0.8-1.8,1.8-1.8s1.8,0.8,1.8,1.8l0,0v1l0,0l0,0c0.1,0.9,0.8,1.5,1.7,1.4c0.8-0.1,1.4-0.7,1.4-1.4
	L44.3,285.1C44.3,285.2,44.3,285.2,44.3,285.1L44.3,285.1z"/>
<path class="st7" d="M178.5,283h30.3c0.3,0,0.6,0.3,0.6,0.6v33.7c0,0.3-0.3,0.6-0.6,0.6h-30.3c-0.3,0-0.6-0.3-0.6-0.6v-33.7
	C177.9,283.3,178.2,283,178.5,283z"/>
<rect x="99.5" y="269.7" class="st4" width="2.9" height="6.6"/>
<rect x="107.8" y="269.7" class="st2" width="2.9" height="6.6"/>
<rect x="107.8" y="280.4" class="st2" width="2.9" height="6.6"/>
<rect x="116.2" y="280.4" class="st4" width="2.9" height="6.6"/>
<rect x="183.8" y="289.7" class="st4" width="2.9" height="6.6"/>
<rect x="192.2" y="289.7" class="st2" width="2.9" height="6.6"/>
<rect x="192.2" y="300.4" class="st2" width="2.9" height="6.6"/>
<rect x="200.5" y="300.4" class="st4" width="2.9" height="6.6"/>
<rect x="404.8" y="289.7" class="st4" width="2.9" height="6.6"/>
<rect x="413.2" y="289.7" class="st2" width="2.9" height="6.6"/>
<rect x="413.2" y="300.4" class="st2" width="2.9" height="6.6"/>
<rect x="421.5" y="300.4" class="st4" width="2.9" height="6.6"/>
<rect x="99.5" y="291.4" class="st2" width="2.9" height="6.6"/>
<rect x="116.2" y="291.4" class="st2" width="2.9" height="6.6"/>
<rect x="99.5" y="291.4" class="st2" width="2.9" height="6.6"/>
<rect x="116.2" y="291.4" class="st2" width="2.9" height="6.6"/>
<path class="st7" d="M257.2,263.8L257.2,263.8c0.8,0,1.5,0.7,1.5,1.5v7c0,0.8-0.7,1.5-1.5,1.5l0,0c-0.8,0-1.5-0.7-1.5-1.5v-7
	C255.7,264.5,256.3,263.8,257.2,263.8z"/>
<path class="st2" d="M239.2,243.8L239.2,243.8c0.8,0,1.5,0.7,1.5,1.5v7c0,0.8-0.7,1.5-1.5,1.5l0,0c-0.8,0-1.5-0.7-1.5-1.5v-7
	C237.7,244.5,238.3,243.8,239.2,243.8z"/>
<circle class="st2" cx="191.1" cy="239.1" r="3.1"/>
<circle class="st4" cx="499.2" cy="209.6" r="3.1"/>
<circle class="st2" cx="556.3" cy="181.1" r="3.1"/>
<circle class="st2" cx="99.8" cy="70.3" r="14.6"/>
<circle class="st6" cx="103.3" cy="69" r="7.2"/>
<path class="st1" d="M133.2,81.5h-26.9c-1.3,0.1-2.3,1.2-2.2,2.5c0.1,1.2,1,2.1,2.2,2.2h9.6c0.5,0.1,0.8,0.6,0.8,1
	c0,0.6-0.7,1.7-1.2,1.7h-4c-0.8,0-1.6,0.7-1.6,1.6v0.2c0,0.8,0.7,1.6,1.6,1.6h19.3c0.8,0,1.6-0.7,1.6-1.6v-0.2
	c0-0.8-0.7-1.6-1.6-1.6h-8.5c-0.6,0-1.1-0.5-1.1-1l0,0l0,0c0-0.6,0.5-1.1,1.1-1.1l0,0h10.7c1.5,0,2.7-1.2,2.7-2.7l0,0
	C135.8,82.7,134.6,81.5,133.2,81.5z"/>
<path class="st6" d="M541.4,216.6h-28.8c-1.4,0.1-2.5,1.3-2.4,2.7c0.1,1.3,1.1,2.3,2.4,2.4h10.3c0.5,0.1,0.9,0.6,0.9,1.1
	c0,0.6-0.7,1.8-1.3,1.8h-4.3c-0.9,0-1.7,0.8-1.7,1.7v0.2c0,0.9,0.8,1.7,1.7,1.7H539c0.9,0,1.7-0.8,1.7-1.7v-0.2
	c0-0.9-0.8-1.7-1.7-1.7h-9.1c-0.6,0-1.2-0.5-1.2-1.2l0,0c0-0.6,0.5-1.2,1.2-1.2h11.5c1.6,0,2.9-1.3,2.9-2.9l0,0
	C544.3,217.9,543,216.6,541.4,216.6z"/>
<path class="st1" d="M297.8,325.2h29.6c0.8,0,1.5,0.7,1.5,1.5v0.6c0,0.8-0.7,1.5-1.5,1.5h-29.6c-0.8,0-1.5-0.7-1.5-1.5v-0.6
	C296.2,325.9,296.9,325.2,297.8,325.2z"/>
<path class="st2" d="M49.4,113.7L49.4,113.7c0.7,0,1.4,0.7,1.4,1.4v6.5c0,0.7-0.7,1.4-1.4,1.4l0,0c-0.7,0-1.4-0.7-1.4-1.4v-6.5
	C48,114.3,48.6,113.7,49.4,113.7z"/>
<path class="st1" d="M68.1,78.2L68.1,78.2c0,0.7-0.7,1.4-1.4,1.4h-6.5c-0.7,0-1.4-0.7-1.4-1.4l0,0c0-0.7,0.7-1.4,1.4-1.4h6.5
	C67.5,76.8,68.1,77.4,68.1,78.2z"/>
<circle class="st2" cx="128.1" cy="218.1" r="3.1"/>
<circle class="st4" cx="39.1" cy="101.6" r="2"/>
<line class="st12" x1="70.6" y1="93.5" x2="98.1" y2="77.6"/>
<line class="st12" x1="57.9" y1="105" x2="98.1" y2="81.7"/>
<line class="st11" x1="501.4" y1="186.6" x2="529.8" y2="205.3"/>
<line class="st11" x1="484.2" y1="179.8" x2="525.9" y2="207.2"/>
<path class="st1" d="M289.7,320.2c0-7.8-4.4-15-11.4-18.6v-6.4c0-2.1-1.7-3.9-3.9-3.9c-0.2,0-0.3,0-0.5,0c-1.2-5.2-5.5-9-10.8-9.4
	v-4.4c0-3.6-3-6.6-6.6-6.6l0,0c-3.6,0-6.6,3-6.6,6.6v8.3c-4.2-2.9-10-1.8-12.9,2.5c-1.6,2.4-2,5.4-1.1,8.1
	c-11.7,1.9-20.3,12-20.4,23.9h48.4l4.8-0.1H289.7z"/>
<path class="st7" d="M234.1,319.2H259c1,0,1.8,0.8,1.8,1.8l0,0c0,1-0.8,1.8-1.8,1.8h-24.9c-1,0-1.8-0.8-1.8-1.8l0,0
	C232.3,320,233.1,319.2,234.1,319.2z"/>
<path class="st6" d="M226.2,321.6v-22.2c0-2.7,0.7-4.9,1.5-4.9l0,0c0.8,0,1.5,2.2,1.5,4.9v22.2H226.2z"/>
<circle class="st2" cx="227.5" cy="292" r="6"/>
<circle class="st7" cx="227.5" cy="292" r="3"/>
<path class="st2" d="M224,299.6h7.3c0.2,0,0.4,0.2,0.4,0.4l0,0c0,0.2-0.2,0.4-0.4,0.4H224c-0.2,0-0.4-0.2-0.4-0.4l0,0
	C223.6,299.8,223.8,299.6,224,299.6z"/>
<path class="st2" d="M224,301.2h7.3c0.2,0,0.4,0.2,0.4,0.4l0,0c0,0.2-0.2,0.4-0.4,0.4H224c-0.2,0-0.4-0.2-0.4-0.4l0,0
	C223.6,301.4,223.8,301.2,224,301.2z"/>
<path class="st7" d="M404.7,227.1L404.7,227.1c0.8,0,1.5,0.7,1.5,1.5v7c0,0.8-0.7,1.5-1.5,1.5l0,0c-0.8,0-1.5-0.7-1.5-1.5v-7
	C403.1,227.8,403.8,227.1,404.7,227.1z"/>
<ellipse transform="matrix(4.675807e-02 -0.9989 0.9989 4.675807e-02 326.3492 615.1147)" class="st1" cx="485.5" cy="136.6" rx="3.1" ry="3.1"/>
<path class="st6" d="M509.2,147.9L509.2,147.9c0,0.8-0.7,1.5-1.5,1.5h-7c-0.8,0-1.5-0.7-1.5-1.5l0,0c0-0.8,0.7-1.5,1.5-1.5h7
	C508.5,146.4,509.2,147.1,509.2,147.9z"/>
<line class="st11" x1="65.5" y1="241.5" x2="65.5" y2="244.3"/>
<line class="st11" x1="65.5" y1="246.5" x2="65.5" y2="249.3"/>
<line class="st11" x1="66.9" y1="245.4" x2="69.7" y2="245.4"/>
<line class="st11" x1="61.3" y1="245.4" x2="64.1" y2="245.4"/>
<line class="st11" x1="274.2" y1="248.4" x2="274.2" y2="251.2"/>
<line class="st11" x1="274.2" y1="253.4" x2="274.2" y2="256.2"/>
<line class="st11" x1="275.7" y1="252.3" x2="278.5" y2="252.3"/>
<line class="st11" x1="270.1" y1="252.3" x2="272.9" y2="252.3"/>
<line class="st11" x1="434.4" y1="216.2" x2="434.4" y2="219"/>
<line class="st11" x1="434.4" y1="221.2" x2="434.4" y2="224"/>
<line class="st11" x1="435.8" y1="220.1" x2="438.7" y2="220.1"/>
<line class="st11" x1="430.2" y1="220.1" x2="433.1" y2="220.1"/>
<line class="st11" x1="553.2" y1="228.2" x2="553.2" y2="231.1"/>
<line class="st11" x1="553.2" y1="233.2" x2="553.2" y2="236.1"/>
<line class="st11" x1="554.6" y1="232.2" x2="557.4" y2="232.2"/>
<line class="st11" x1="549" y1="232.2" x2="551.8" y2="232.2"/>
<line class="st13" x1="149.1" y1="54" x2="149.1" y2="56.6"/>
<line class="st13" x1="149.1" y1="58.7" x2="149.1" y2="61.3"/>
<line class="st13" x1="150.4" y1="57.6" x2="153" y2="57.6"/>
<line class="st13" x1="145.2" y1="57.6" x2="147.8" y2="57.6"/>
<line class="st14" x1="398.4" y1="255.6" x2="398.4" y2="258.5"/>
<line class="st14" x1="398.4" y1="260.6" x2="398.4" y2="263.5"/>
<line class="st14" x1="399.9" y1="259.6" x2="402.7" y2="259.6"/>
<line class="st14" x1="394.3" y1="259.6" x2="397.1" y2="259.6"/>
<line class="st14" x1="537.6" y1="111" x2="537.6" y2="113.8"/>
<line class="st14" x1="537.6" y1="116" x2="537.6" y2="118.8"/>
<line class="st14" x1="539" y1="114.9" x2="541.8" y2="114.9"/>
<line class="st14" x1="533.4" y1="114.9" x2="536.3" y2="114.9"/>
<path class="st1" d="M310.3,320.2c0-7.8,4.4-15,11.4-18.6v-6.4c0-2.1,1.7-3.9,3.9-3.9c0.2,0,0.3,0,0.5,0c1.2-5.1,5.5-8.9,10.8-9.4
	v-4.4c0-3.6,3-6.6,6.6-6.6l0,0c3.6,0,6.6,3,6.6,6.6v8.3c4.2-2.9,10-1.8,12.9,2.5c1.6,2.4,2,5.4,1.1,8.1c11.7,1.9,20.3,12,20.4,23.9
	h-48.4l-4.8-0.1H310.3z"/>
<path class="st2" d="M300,231.3c-9.9,9.6-8.9,19.8-8.9,19.8v34.5H309v-34.5C308.9,243.6,305.6,236.4,300,231.3z"/>
<path class="st5" d="M317.5,281.3v6.3c0,0.3-0.2,0.5-0.5,0.5l-11.8,1.7c-0.3,0-0.6-0.2-0.6-0.5v-0.1V268c0-0.3,0.1-0.6,0.4-0.6
	c0.2,0,0.4,0.1,0.6,0.3l11.8,13.4C317.5,281.1,317.5,281.2,317.5,281.3z"/>
<path class="st5" d="M282.6,281.3v6.3c0,0.3,0.2,0.5,0.5,0.5l11.8,1.7c0.3,0,0.6-0.2,0.6-0.5v-0.1V268c0-0.3-0.1-0.6-0.4-0.6
	c-0.2,0-0.4,0.1-0.6,0.3L282.7,281C282.6,281.1,282.6,281.2,282.6,281.3z"/>
<path class="st2" d="M310.9,284.1l-1.5,0.8l0.3-1.7l0,0l-1.2-1.2l1.7-0.2l0,0l0.8-1.6l0.8,1.6l0,0l1.7,0.2l-1.2,1.2l0,0l0.3,1.7
	L310.9,284.1L310.9,284.1z"/>
<path class="st6" d="M310.9,284.1l-1.5,0.8l0.3-1.7l0,0l-1.2-1.2l1.7-0.2l0,0l0.8-1.6l0.8,1.6l0,0l1.7,0.2l-1.2,1.2l0,0l0.3,1.7
	L310.9,284.1L310.9,284.1z"/>
<path class="st6" d="M289.5,284.1l-1.5,0.8l0.3-1.7l0,0L287,282l1.7-0.2l0,0l0.8-1.6l0.8,1.6l0,0l1.7,0.2l-1.2,1.2l0,0l0.3,1.7
	L289.5,284.1L289.5,284.1z"/>
<circle class="st1" cx="300" cy="254.6" r="4"/>
<path class="st15" d="M301.5,251.9c0.3,0.1,0.6,0.2,0.9,0.5c0.3,0.2,0.5,0.5,0.6,0.8s0.2,0.7,0.2,1s0,0.7-0.1,1
	c-0.1-0.6-0.3-1.2-0.6-1.8C302.2,252.8,301.9,252.3,301.5,251.9z"/>
<path class="st1" d="M311.1,307.6c-4.4,0-8.5,2.3-10.8,6.1c-3.6-4.8-10.3-5.7-15.1-2.2c-2.7,2-4.3,5.2-4.3,8.6h42.8
	C323.7,313.3,318.1,307.6,311.1,307.6L311.1,307.6z"/>
<rect x="472.4" y="238.1" class="st2" width="10.4" height="3.4"/>
<rect x="472.4" y="245.2" class="st2" width="10.4" height="3.4"/>
<rect x="488.2" y="238.1" class="st2" width="10.4" height="3.4"/>
<rect x="488.2" y="245.2" class="st1" width="10.4" height="3.4"/>
</svg>
