<?xml version="1.0" encoding="utf-8"?>
<!-- Generator: Adobe Illustrator 21.1.0, SVG Export Plug-In . SVG Version: 6.00 Build 0)  -->
<svg version="1.1" id="logo" xmlns="http://www.w3.org/2000/svg" xmlns:xlink="http://www.w3.org/1999/xlink" x="0px" y="0px"
	 viewBox="0 0 185.3 43.3" style="enable-background:new 0 0 185.3 43.3;" xml:space="preserve">
<style type="text/css">
	.st0{fill:#FFFFFF;}
	.st1{fill:#F7E6BA;}
	.st2{fill:#68604D;}
	.st3{fill:#FFCC33;}
	.st4{fill:#F4B638;}
	.st5{fill:#BDE1F9;}
	.st6{fill:#FF6663;}
</style>
<title>logo</title>
<path class="st0" d="M5.8,43V28.1H0.4c-0.2,0-0.4-0.2-0.4-0.4l0,0v-1.3C0,26.2,0.2,26,0.4,26l0,0h13.3c0.2,0,0.4,0.2,0.4,0.4l0,0
	v1.3c0,0.2-0.2,0.4-0.4,0.4l0,0H8.2V43c0,0.2-0.2,0.4-0.4,0.4l0,0H6.2C6,43.3,5.8,43.2,5.8,43L5.8,43z"/>
<path class="st0" d="M18.9,26.4v7.1h8.2v-7.1c0-0.2,0.2-0.4,0.4-0.4l0,0h1.7c0.2,0,0.4,0.2,0.4,0.4l0,0V43c0,0.2-0.2,0.4-0.4,0.4
	l0,0h-1.7c-0.2,0-0.4-0.2-0.4-0.4l0,0v-7.5h-8.2V43c0,0.2-0.2,0.4-0.4,0.4l0,0h-1.7c-0.2,0-0.4-0.2-0.4-0.4l0,0V26.4
	c0-0.2,0.2-0.4,0.4-0.4l0,0h1.7C18.7,26,18.9,26.2,18.9,26.4z"/>
<path class="st0" d="M34.2,26h10.1c0.2,0,0.4,0.2,0.4,0.4l0,0v1.3c0,0.2-0.2,0.4-0.4,0.4l0,0h-8.1v5.4h7.7c0.2,0,0.4,0.2,0.4,0.4
	l0,0v1.3c0,0.2-0.2,0.4-0.4,0.4l0,0h-7.7v5.8h8.3c0.2,0,0.4,0.2,0.4,0.4l0,0v1.4c0,0.2-0.2,0.4-0.4,0.4l0,0H34.2
	c-0.2,0-0.4-0.2-0.4-0.4l0,0V26.4C33.8,26.2,34,26,34.2,26L34.2,26z"/>
<path class="st0" d="M73.2,43.3h-5.6c-0.3,0-0.6-0.2-0.7-0.5L51.8,0.5c-0.1-0.2,0-0.4,0.2-0.5h0.1h5.6c0.3,0,0.6,0.2,0.7,0.5
	l12.1,36.6L83.4,0.5C83.5,0.2,83.8,0,84.1,0h5c0.2,0,0.4,0.2,0.4,0.4v0.1L73.8,42.9C73.7,43.1,73.4,43.3,73.2,43.3z"/>
<path class="st0" d="M112.8,0h7.6c0.3,0,0.5,0.1,0.6,0.3l21.1,35.5V0.7c0-0.4,0.3-0.7,0.7-0.7l0,0h4.4c0.2,0,0.4,0.2,0.4,0.4l0,0V43
	c0,0.2-0.2,0.4-0.4,0.4l0,0h-6.9c-0.3,0-0.5-0.1-0.6-0.3L117.9,6.5V43c0,0.2-0.2,0.4-0.4,0.4l0,0h-4.7c-0.2,0-0.4-0.2-0.4-0.4l0,0
	V0.4C112.5,0.2,112.6,0,112.8,0L112.8,0z"/>
<path class="st0" d="M158,0h26.5c0.2,0,0.4,0.2,0.4,0.4v4.4c0,0.2-0.2,0.4-0.4,0.4h-20.8v13.5h19.8c0.2,0,0.4,0.2,0.4,0.4v4.3
	c0,0.2-0.2,0.4-0.4,0.4h-19.8v14.4H185c0.2,0,0.4,0.2,0.4,0.4V43c0,0.2-0.2,0.4-0.4,0.4h-27c-0.2,0-0.4-0.2-0.4-0.4l0,0V0.4
	C157.7,0.2,157.8,0,158,0L158,0z"/>
<polygon class="st1" points="99.6,0.3 96.8,8.5 102.1,8.5 "/>
<polygon class="st2" points="99.6,0.3 98.9,2.2 100.2,2.2 "/>
<polygon class="st3" points="96.8,8.6 102.1,8.5 101.7,36.4 96.4,36.5 "/>
<polygon class="st4" points="96.8,8.6 97.6,8.5 97.2,36.5 96.4,36.5 "/>
<polygon class="st4" points="99,8.5 99.9,8.5 99.5,36.4 98.6,36.4 "/>
<polygon class="st4" points="101.3,8.5 102.1,8.5 101.7,36.4 100.8,36.4 "/>
<polygon class="st5" points="96.4,36.4 101.7,36.3 101.6,40.4 96.3,40.5 "/>
<path class="st6" d="M101.6,40.4c0,1.5-1.2,2.8-2.7,2.9c-1.5,0-2.6-1.3-2.6-2.7v-0.1L101.6,40.4z"/>
</svg>
