<?xml version="1.0" encoding="utf-8"?>
<!-- Generator: Adobe Illustrator 21.1.0, SVG Export Plug-In . SVG Version: 6.00 Build 0)  -->
<svg version="1.1" id="Layer_1" xmlns="http://www.w3.org/2000/svg" xmlns:xlink="http://www.w3.org/1999/xlink" x="0px" y="0px"
	 viewBox="0 0 200 150" style="enable-background:new 0 0 200 150;" xml:space="preserve">
<style type="text/css">
	.st0{fill:#E4DBEF;}
	.st1{fill:#A081C7;}
	.st2{fill:#D6C9E7;}
	.st3{fill:#774BAF;}
	.st4{fill:none;stroke:#774BAF;stroke-linecap:round;stroke-miterlimit:10;}
	.st5{fill:none;stroke:#774BAF;stroke-width:1.5;stroke-linecap:round;stroke-miterlimit:10;}
	.st6{fill:none;stroke:#774BAF;stroke-width:0.5;stroke-linecap:round;stroke-miterlimit:10;}
	.st7{fill:#926FBF;}
	.st8{fill:#EBE4F3;}
	.st9{font-family:'Roboto-Regular';}
	.st10{font-size:11.7px;}
	.st11{fill:#F7F4FA;}
	.st12{fill:none;stroke:#774BAF;stroke-width:0.5;stroke-linecap:round;stroke-miterlimit:10;stroke-dasharray:1.99,1.99;}
	.st13{fill:#AD93CF;}
	.st14{fill:none;stroke:#A081C7;stroke-width:0.5;stroke-linecap:round;stroke-miterlimit:10;}
	.st15{fill:none;stroke:#774BAF;stroke-width:0.25;stroke-linecap:round;stroke-miterlimit:10;}
	.st16{fill:none;stroke:#774BAF;stroke-width:0.5;stroke-linecap:round;stroke-miterlimit:10;stroke-dasharray:1.84,1.84;}
	.st17{fill:#C9B7DF;}
	.st18{fill:none;stroke:#774BAF;stroke-width:0.2654;stroke-linecap:round;stroke-miterlimit:10;}
	.st19{fill:none;stroke:#774BAF;stroke-width:0.2654;stroke-linecap:round;stroke-miterlimit:10;stroke-dasharray:1.9742,1.9742;}
	.st20{fill:none;stroke:#926FBF;stroke-width:0.2654;stroke-linecap:round;stroke-miterlimit:10;}
	.st21{fill:none;stroke:#774BAF;stroke-width:0.5307;stroke-linecap:round;stroke-miterlimit:10;}
	.st22{fill:none;stroke:#D6C9E7;stroke-width:0.2654;stroke-linecap:round;stroke-miterlimit:10;}
</style>
<rect x="98.5" y="32.2" class="st1" width="2.5" height="3.6"/>
<rect x="107.8" y="37.8" transform="matrix(0.7071 -0.7071 0.7071 0.7071 4.5738 88.4953)" class="st2" width="2.7" height="1.9"/>
<rect x="89.6" y="37.2" transform="matrix(0.7071 -0.7071 0.7071 0.7071 -0.8052 75.3347)" class="st2" width="1.9" height="3"/>
<path class="st3" d="M138.7,106.1c0-5.1,0.1-9.2,4.4-9.2H64.9c-2.4,0-4.3,2.3-4.3,5.2v8c0,2.8,1.9,5.2,4.3,5.2H143
	C138.7,115.2,138.7,111.1,138.7,106.1z"/>
<path class="st0" d="M138.6,106.1c0-4.1-0.2-7.5,4-7.5h-76c-2.3,0-4.2,1.9-4.2,4.2v6.6c0,2.3,1.9,4.1,4.1,4.2h76
	C138.5,113.5,138.6,110.2,138.6,106.1z"/>
<line class="st4" x1="66.8" y1="97.7" x2="143.1" y2="97.7"/>
<line class="st4" x1="66.5" y1="114.4" x2="142.8" y2="114.4"/>
<polygon class="st1" points="83.2,120 78.5,115.6 73.9,120 73.7,106.1 83.2,106.1 "/>
<path class="st5" d="M143,114.4c-2.8,0-5-3.7-5-8.4s2.3-8.4,5-8.4"/>
<path class="st1" d="M69.4,83.2h68.4c0.5,0,0.8,0.4,0.8,0.8v12c0,0.5-0.4,0.8-0.8,0.8H69.4c-0.5,0-0.8-0.4-0.8-0.8V84
	C68.5,83.6,68.9,83.2,69.4,83.2z"/>
<rect x="75.3" y="83.2" class="st0" width="4.4" height="13.7"/>
<rect x="127.4" y="83.2" class="st0" width="4.4" height="13.7"/>
<path class="st3" d="M65.9,75.9c0,4-0.1,7.3-3.5,7.3h62.6c1.9,0,3.4-1.8,3.4-4.1v-6.4c0-2.3-1.6-4.1-3.4-4.1H62.6
	C66,68.5,65.9,71.8,65.9,75.9z"/>
<path class="st0" d="M65.9,75.8c0,3.3,0.1,6-3.2,6h60.8c1.9,0,3.4-1.5,3.4-3.3c0,0,0,0,0,0v-5.3c0-1.9-1.5-3.4-3.4-3.4H62.8
	C66.1,69.9,65.9,72.5,65.9,75.8z"/>
<line class="st4" x1="123.6" y1="69.2" x2="62.6" y2="69.2"/>
<path class="st4" d="M62.5,69.1c2.2,0,4,3.1,4,6.8s-1.8,6.8-4,6.8"/>
<line class="st6" x1="75.3" y1="72.9" x2="120" y2="72.9"/>
<line class="st6" x1="75.3" y1="75.8" x2="120" y2="75.8"/>
<path class="st7" d="M55.2,43.8H34.8c-0.8,0-1.5,0.7-1.5,1.5v13.5c0,0.8,0.7,1.5,1.5,1.5h2.4l3.7,4.2c0.1,0.2,0.4,0.2,0.5,0
	c0.1,0,0.1-0.1,0.1-0.2l1.1-4.1h12.6c0.8,0,1.5-0.7,1.5-1.5V45.3C56.7,44.5,56,43.8,55.2,43.8z"/>
<text transform="matrix(1 0 0 1 41.05 55.96)" class="st8 st9 st10">Q</text>
<path class="st7" d="M158.7,74.4h20.4c0.8,0,1.5,0.7,1.5,1.5v13.5c0,0.8-0.7,1.5-1.5,1.5h-2.4l-3.7,4.2c-0.1,0.2-0.4,0.2-0.5,0
	c-0.1,0-0.1-0.1-0.1-0.2l-1.1-4.1h-12.6c-0.8,0-1.5-0.7-1.5-1.5V75.9C157.2,75,157.9,74.4,158.7,74.4z"/>
<text transform="matrix(1 0 0 1 165.05 86.31)" class="st11 st9 st10">A</text>
<path class="st6" d="M39.5,92.9l-1-0.1"/>
<path class="st12" d="M36.5,92.6C24.4,90.5,16.2,79,18.3,66.8c0.7-3.9,2.4-7.5,4.9-10.5"/>
<path class="st6" d="M23.9,55.5c0.2-0.2,0.5-0.5,0.7-0.7"/>
<circle class="st3" cx="99.7" cy="46.8" r="11.4"/>
<circle class="st11" cx="99.7" cy="46.8" r="10.2"/>
<rect x="97.2" y="31.4" class="st13" width="4.9" height="1.4"/>
<line class="st14" x1="99.7" y1="46.8" x2="99.7" y2="42"/>
<ellipse transform="matrix(0.7071 -0.7071 0.7071 0.7071 -3.9184 84.2414)" class="st3" cx="99.7" cy="46.9" rx="1.4" ry="1.4"/>
<line class="st15" x1="99.7" y1="53.1" x2="99.7" y2="51.1"/>
<line class="st15" x1="99.7" y1="39.8" x2="99.7" y2="38"/>
<line class="st15" x1="108.4" y1="46.8" x2="106.5" y2="46.8"/>
<line class="st15" x1="92.7" y1="46.8" x2="90.8" y2="46.8"/>
<path class="st6" d="M175.1,101.2c0,0.3,0.1,0.7,0.1,1"/>
<path class="st16" d="M175,104c-0.9,6.1-6.7,10.3-12.8,9.4c-1.2-0.2-2.4-0.6-3.4-1.1"/>
<path class="st6" d="M158,111.8c-0.3-0.2-0.6-0.4-0.8-0.6"/>
<polyline class="st6" points="169.6,60.4 169.6,44.4 126,44.4 "/>
<line class="st6" x1="74.8" y1="33.1" x2="74.8" y2="35.7"/>
<line class="st6" x1="74.8" y1="37.7" x2="74.8" y2="40.3"/>
<line class="st6" x1="76.1" y1="36.7" x2="78.7" y2="36.7"/>
<line class="st6" x1="71" y1="36.7" x2="73.6" y2="36.7"/>
</svg>
